<?xml version="1.0" encoding="UTF-8" standalone="no" ?>
<!DOCTYPE svg PUBLIC "-//W3C//DTD SVG 1.1//EN" "http://www.w3.org/Graphics/SVG/1.1/DTD/svg11.dtd">
<svg xmlns="http://www.w3.org/2000/svg" xmlns:xlink="http://www.w3.org/1999/xlink" version="1.1" width="150" height="150" viewBox="0 0 150 150" xml:space="preserve">
<desc>Created with Fabric.js 4.6.0</desc>
<defs>
</defs>
<g transform="matrix(1.31 0 0 1.31 81.21 75.93)" id="7mrCHj2xORcWkFj1_z3xS"  >
<path style="stroke: rgb(152,95,0); stroke-width: 10; stroke-dasharray: none; stroke-linecap: round; stroke-dashoffset: 0; stroke-linejoin: round; stroke-miterlimit: 10; fill: none; fill-rule: nonzero; opacity: 1;" vector-effect="non-scaling-stroke"  transform=" translate(-68.17, -65.87)" d="M 96.41743677669106 14.875244743363787 Q 96.41743677669106 14.885244743363787 96.52954440000944 14.885244743363787 Q 96.64165202332782 14.885244743363787 96.64165202332782 14.997352366682172 Q 96.64165202332782 15.109459990000559 96.75375964664622 15.221567613318944 Q 96.86586726996461 15.33367523663733 96.86586726996461 15.5578904832741 Q 96.86586726996461 15.782105729910873 96.86586726996461 16.006320976547645 Q 96.86586726996461 16.230536223184416 96.86586726996461 16.342643846502803 Q 96.86586726996461 16.454751469821186 96.86586726996461 16.56685909313957 Q 96.86586726996461 16.678966716457957 96.86586726996461 16.791074339776344 Q 96.86586726996461 16.903181963094728 96.86586726996461 17.239504833049885 Q 96.86586726996461 17.575827703005043 96.86586726996461 17.800042949641814 Q 96.86586726996461 18.024258196278584 96.86586726996461 18.13636581959697 Q 96.86586726996461 18.24847344291536 96.86586726996461 18.360581066233742 Q 96.86586726996461 18.47268868955213 96.86586726996461 18.584796312870516 Q 96.86586726996461 18.6969039361889 96.86586726996461 18.809011559507283 Q 96.86586726996461 18.92111918282567 96.86586726996461 19.145334429462444 Q 96.86586726996461 19.369549676099215 96.75375964664622 19.369549676099215 Q 96.64165202332782 19.369549676099215 96.64165202332782 19.705872546054373 Q 96.64165202332782 20.042195416009527 96.64165202332782 20.154303039327914 Q 96.64165202332782 20.266410662646297 96.52954440000944 20.490625909283068 Q 96.41743677669106 20.714841155919842 96.41743677669106 20.939056402556613 Q 96.41743677669106 21.163271649193383 96.19322153005429 21.49959451914854 Q 95.96900628341751 21.8359173891037 95.96900628341751 21.948025012422086 Q 95.96900628341751 22.06013263574047 95.96900628341751 22.172240259058853 Q 95.96900628341751 22.28434788237724 95.96900628341751 22.396455505695627 Q 95.96900628341751 22.50856312901401 95.74479103678074 22.73277837565078 Q 95.52057579014397 22.956993622287555 95.52057579014397 23.181208868924326 Q 95.52057579014397 23.405424115561097 95.40846816682559 23.517531738879484 Q 95.2963605435072 23.629639362197867 95.2963605435072 23.853854608834638 Q 95.2963605435072 24.078069855471412 95.18425292018881 24.1901774787898 Q 95.07214529687042 24.302285102108183 95.07214529687042 24.526500348744953 Q 95.07214529687042 24.750715595381724 94.96003767355204 25.08703846533688 Q 94.84793005023366 25.42336133529204 94.73582242691528 25.64757658192881 Q 94.6237148035969 25.87179182856558 94.39949955696012 26.20811469852074 Q 94.17528431032335 26.544437568475896 94.17528431032335 26.880760438431054 Q 94.17528431032335 27.217083308386208 94.17528431032335 27.441298555022982 Q 94.17528431032335 27.665513801659753 93.95106906368657 27.777621424978136 Q 93.7268538170498 27.889729048296523 93.61474619373142 28.113944294933294 Q 93.50263857041304 28.338159541570064 93.50263857041304 28.45026716488845 Q 93.50263857041304 28.56237478820684 93.50263857041304 28.78659003484361 Q 93.50263857041304 29.01080528148038 93.50263857041304 29.122912904798767 Q 93.50263857041304 29.23502052811715 93.39053094709465 29.45923577475392 Q 93.27842332377625 29.683451021390695 93.16631570045787 29.907666268027466 Q 93.05420807713949 30.131881514664236 92.9421004538211 30.131881514664236 Q 92.8299928305027 30.131881514664236 92.60577758386594 30.243989137982624 Q 92.38156233722918 30.356096761301007 92.38156233722918 30.580312007937778 Q 92.38156233722918 30.804527254574552 92.38156233722918 30.91663487789294 Q 92.38156233722918 31.028742501211322 92.15734709059241 31.140850124529706 Q 91.93313184395564 31.252957747848093 91.82102422063724 31.36506537116648 Q 91.70891659731885 31.477172994484864 91.59680897400047 31.589280617803247 Q 91.48470135068209 31.701388241121634 91.37259372736371 31.81349586444002 Q 91.26048610404533 31.92560348775841 91.14837848072693 32.03771111107679 Q 91.03627085740854 32.149818734395176 90.81205561077176 32.37403398103194 Q 90.58784036413499 32.59824922766872 90.36362511749823 32.710356850987104 Q 90.13940987086147 32.82246447430549 90.13940987086147 32.93457209762387 Q 90.13940987086147 33.04667972094226 90.02730224754308 33.158787344260645 Q 89.91519462422468 33.27089496757903 89.8030870009063 33.27089496757903 Q 89.69097937758792 33.27089496757903 89.57887175426953 33.4951102142158 Q 89.46676413095113 33.71932546085257 89.35465650763275 33.83143308417096 Q 89.24254888431437 33.94354070748935 89.0183336376776 34.16775595412612 Q 88.79411839104083 34.39197120076289 88.79411839104083 34.616186447399656 Q 88.79411839104083 34.84040169403643 88.56990314440405 35.064616940673204 Q 88.34568789776728 35.28883218730997 88.2335802744489 35.40093981062836 Q 88.12147265113052 35.513047433946745 88.00936502781214 35.62515505726513 Q 87.89725740449376 35.73726268058351 87.67304215785698 36.18569317385706 Q 87.44882691122021 36.6341236671306 87.22461166458343 36.97044653708576 Q 87.00039641794666 37.30676940704092 87.00039641794666 37.53098465367769 Q 87.00039641794666 37.75519990031446 87.00039641794666 37.867307523632846 Q 87.00039641794666 37.979415146951226 86.77618117130989 38.09152277026961 Q 86.55196592467311 38.203630393588 86.55196592467311 38.427845640224774 Q 86.55196592467311 38.65206088686154 86.55196592467311 38.87627613349831 Q 86.55196592467311 39.10049138013508 86.43985830135473 39.43681425009024 Q 86.32775067803635 39.7731371200454 86.21564305471796 39.885244743363785 Q 86.10353543139956 39.99735236668217 85.99142780808118 40.22156761331894 Q 85.8793201847628 40.44578285995571 85.8793201847628 40.66999810659249 Q 85.8793201847628 40.894213353229254 85.76721256144442 41.11842859986602 Q 85.65510493812604 41.342643846502796 85.43088969148927 41.56685909313957 Q 85.2066744448525 41.791074339776344 85.2066744448525 42.01528958641312 Q 85.2066744448525 42.239504833049885 85.2066744448525 42.46372007968665 Q 85.2066744448525 42.68793532632343 84.87035157489734 43.02425819627858 Q 84.53402870494219 43.36058106623374 84.4219210816238 43.47268868955213 Q 84.3098134583054 43.58479631287051 84.08559821166862 43.80901155950728 Q 83.86138296503185 44.03322680614406 83.63716771839509 44.25744205278083 Q 83.41295247175833 44.4816572994176 83.18873722512156 44.81798016937276 Q 82.96452197848478 45.154303039327914 82.85241435516639 45.37851828596469 Q 82.740306731848 45.602733532601455 82.40398386189284 45.939056402556616 Q 82.06766099193769 46.27537927251177 82.06766099193769 46.38748689583015 Q 82.06766099193769 46.49959451914854 81.84344574530091 46.8359173891037 Q 81.61923049866414 47.17224025905885 81.39501525202738 47.620670752332394 Q 81.17080000539062 48.069101245605935 81.05869238207222 48.18120886892432 Q 80.94658475875383 48.29331649224271 80.83447713543545 48.629639362197864 Q 80.72236951211707 48.965962232153025 80.61026188879868 49.19017747878979 Q 80.49815426548028 49.414392725426566 80.3860466421619 49.63860797206334 Q 80.27393901884352 49.86282321870011 80.04972377220675 49.86282321870011 Q 79.82550852556997 49.86282321870011 79.82550852556997 50.19914608865527 Q 79.82550852556997 50.53546895861042 79.71340090225159 50.7596842052472 Q 79.60129327893321 50.983899451883964 79.37707803229644 51.20811469852073 Q 79.15286278565966 51.432329945157505 79.04075516234128 51.65654519179428 Q 78.9286475390229 51.88076043843105 78.70443229238613 52.21708330838621 Q 78.48021704574936 52.55340617834136 78.03178655247581 53.00183667161491 Q 77.58335605920226 53.45026716488845 77.47124843588388 53.786590034843606 Q 77.3591408125655 54.12291290479876 77.13492556592873 54.5713433980723 Q 76.91071031929195 55.01977389134585 76.68649507265519 55.243989137982624 Q 76.46227982601842 55.46820438461939 76.23806457938164 55.80452725457455 Q 76.01384933274487 56.140850124529706 75.90174170942649 56.252957747848086 Q 75.7896340861081 56.36506537116647 75.7896340861081 56.701388241121634 Q 75.7896340861081 57.03771111107679 75.56541883947133 57.26192635771356 Q 75.34120359283456 57.48614160435033 75.34120359283456 57.710356850987104 Q 75.34120359283456 57.93457209762388 75.22909596951618 57.93457209762388 Q 75.11698834619779 57.93457209762388 74.89277309956101 58.046679720942265 Q 74.66855785292424 58.158787344260645 74.55645022960584 58.60721783753419 Q 74.44434260628746 59.055648330807735 74.33223498296908 59.16775595412612 Q 74.2201273596507 59.2798635774445 74.10801973633232 59.504078824081276 Q 73.99591211301393 59.72829407071804 73.77169686637716 59.84040169403643 Q 73.54748161974038 59.95250931735482 73.43537399642199 60.28883218730998 Q 73.3232663731036 60.62515505726513 73.09905112646683 60.73726268058351 Q 72.87483587983007 60.8493703039019 72.76272825651168 60.96147792722029 Q 72.6506206331933 61.073585550538674 72.53851300987492 61.29780079717544 Q 72.42640538655652 61.522016043812215 72.31429776323813 61.522016043812215 Q 72.20219013991975 61.522016043812215 72.09008251660137 61.6341236671306 Q 71.97797489328299 61.74623129044899 71.75375964664622 61.97044653708576 Q 71.52954440000944 62.19466178372253 71.30532915337267 62.4188770303593 Q 71.0811139067359 62.64309227699607 70.85689866009912 62.75519990031446 Q 70.63268341346236 62.867307523632846 70.40846816682559 63.09152277026962 Q 70.18425292018881 63.31573801690639 70.07214529687042 63.65206088686155 Q 69.96003767355204 63.9883837568167 69.5116071802785 64.21259900345348 Q 69.06317668700495 64.43681425009024 68.8389614403682 64.54892187340863 Q 68.61474619373142 64.66102949672701 68.39053094709465 64.88524474336378 Q 68.16631570045787 65.10945999000056 67.71788520718434 65.22156761331894 Q 67.26945471391079 65.33367523663733 66.82102422063724 65.5578904832741 Q 66.37259372736371 65.78210572991087 65.92416323409016 65.89421335322925 Q 65.47573274081661 66.00632097654764 65.13940987086146 66.11842859986604 Q 64.8030870009063 66.23053622318442 64.69097937758792 66.3426438465028 Q 64.57887175426953 66.45475146982119 64.13044126099598 66.67896671645795 Q 63.682010767722446 66.90318196309472 63.34568789776729 67.1273972097315 Q 63.00936502781214 67.35161245636827 62.673042157856976 67.46372007968665 Q 62.336719287901815 67.57582770300505 62.11250404126505 67.68793532632343 Q 61.88828879462828 67.8000429496418 61.66407354799151 67.9121505729602 Q 61.43985830135473 68.02425819627858 61.327750678036345 68.13636581959696 Q 61.21564305471796 68.24847344291535 60.99142780808119 68.47268868955213 Q 60.767212561444424 68.6969039361889 60.65510493812604 68.6969039361889 Q 60.54299731480765 68.6969039361889 60.318782068170876 68.6969039361889 Q 60.0945668215341 68.6969039361889 59.870351574897335 68.92111918282566 Q 59.64613632826057 69.14533442946244 59.53402870494218 69.25744205278082 Q 59.42192108162379 69.36954967609921 59.19770583498702 69.4816572994176 Q 58.973490588350245 69.59376492273599 58.86138296503186 69.81798016937276 Q 58.74927534171347 70.04219541600952 58.525060095076704 70.04219541600952 Q 58.30084484843994 70.04219541600952 58.30084484843994 70.2664106626463 Q 58.30084484843994 70.49062590928307 57.964521978484775 70.49062590928307 Q 57.628199108529614 70.49062590928307 57.516091485211234 70.71484115591984 Q 57.403983861892854 70.93905640255662 57.29187623857447 71.051164025875 Q 57.17976861525608 71.16327164919338 56.84344574530092 71.38748689583015 Q 56.50712287534576 71.61170214246692 56.50712287534576 71.72380976578532 Q 56.50712287534576 71.8359173891037 56.50712287534576 72.06013263574047 Q 56.50712287534576 72.28434788237723 56.1708000053906 72.28434788237723 Q 55.83447713543545 72.28434788237723 55.72236951211706 72.50856312901401 Q 55.610261888798675 72.73277837565078 55.49815426548029 72.84488599896918 Q 55.3860466421619 72.95699362228756 55.3860466421619 73.06910124560594 Q 55.3860466421619 73.18120886892433 55.27393901884352 73.18120886892433 Q 55.16183139552514 73.18120886892433 54.93761614888837 73.18120886892433 Q 54.71340090225159 73.18120886892433 54.71340090225159 73.29331649224271 Q 54.71340090225159 73.40542411556109 54.48918565561482 73.51753173887948 Q 54.264970408978044 73.62963936219786 54.152862785659664 73.62963936219786 Q 54.040755162341284 73.62963936219786 53.9286475390229 73.85385460883464 Q 53.81653991570451 74.07806985547141 53.592324669067736 74.07806985547141 Q 53.36810942243096 74.07806985547141 53.143894175794195 74.07806985547141 Q 52.91967892915743 74.07806985547141 52.91967892915743 74.19017747878979 Q 52.91967892915743 74.30228510210819 52.80757130583904 74.30228510210819 Q 52.69546368252065 74.30228510210819 52.35914081256549 74.52650034874495 Q 52.02281794261033 74.75071559538172 51.798602695973564 74.8628232187001 Q 51.5743874493368 74.9749308420185 51.35017220270002 75.19914608865527 Q 51.12595695606325 75.42336133529204 50.90174170942648 75.6475765819288 Q 50.677526462789714 75.87179182856558 50.45331121615294 76.20811469852075 Q 50.229095969516166 76.5444375684759 50.11698834619778 76.65654519179428 Q 50.00488072287939 76.76865281511266 49.66855785292424 76.88076043843105 Q 49.332234982969084 76.99286806174943 49.332234982969084 77.3291909317046 Q 49.332234982969084 77.66551380165976 49.10801973633231 77.88972904829652 Q 48.883804489695535 78.11394429493329 48.77169686637715 78.22605191825167 Q 48.65958924305876 78.33815954157006 48.54748161974038 78.45026716488846 Q 48.435373996422 78.56237478820684 48.323266373103614 78.67448241152522 Q 48.21115874978523 78.78659003484361 48.09905112646684 78.89869765816199 Q 47.98694350314845 79.01080528148037 47.76272825651168 79.45923577475392 Q 47.538513009874904 79.90766626802747 47.31429776323814 80.01977389134585 Q 47.09008251660137 80.13188151466423 46.97797489328298 80.24398913798262 Q 46.865867269964596 80.356096761301 46.75375964664621 80.46820438461938 Q 46.64165202332782 80.58031200793778 46.529544400009435 80.69241963125617 Q 46.41743677669105 80.80452725457455 46.30532915337267 81.02874250121133 Q 46.19322153005429 81.25295774784809 45.969006283417514 81.25295774784809 Q 45.74479103678074 81.25295774784809 45.520575790143965 81.47717299448486 Q 45.29636054350719 81.70138824112163 45.29636054350719 81.81349586444003 Q 45.29636054350719 81.92560348775841 45.072145296870424 82.14981873439518 Q 44.84793005023366 82.37403398103194 44.73582242691527 82.37403398103194 Q 44.62371480359688 82.37403398103194 44.511607180278496 82.7103568509871 Q 44.39949955696011 83.04667972094227 44.17528431032334 83.27089496757904 Q 43.951069063686575 83.4951102142158 43.7268538170498 83.6072178375342 Q 43.502638570413026 83.71932546085257 43.39053094709464 83.94354070748935 Q 43.27842332377625 84.16775595412612 43.054208077139485 84.2798635774445 Q 42.82999283050272 84.3919712007629 42.49366996054756 84.84040169403644 Q 42.157347090592395 85.28883218730998 41.93313184395563 85.40093981062836 Q 41.70891659731886 85.51304743394675 41.596808974000474 85.62515505726513 Q 41.48470135068209 85.73726268058351 41.3725937273637 85.8493703039019 Q 41.26048610404531 85.96147792722029 41.148378480726926 86.07358555053867 Q 41.03627085740854 86.18569317385706 40.81205561077177 86.40990842049384 Q 40.587840364135005 86.63412366713061 40.47573274081662 86.63412366713061 Q 40.36362511749823 86.63412366713061 40.36362511749823 86.85833891376737 Q 40.36362511749823 87.08255416040414 40.139409870861456 87.19466178372252 Q 39.91519462422468 87.30676940704092 39.8030870009063 87.64309227699607 Q 39.69097937758792 87.97941514695123 39.578871754269535 88.203630393588 Q 39.46676413095115 88.42784564022477 39.46676413095115 88.76416851017993 Q 39.46676413095115 89.10049138013508 39.46676413095115 89.32470662677186 Q 39.46676413095115 89.54892187340863 39.46676413095115 89.66102949672702 Q 39.46676413095115 89.7731371200454 39.46676413095115 89.99735236668218 Q 39.46676413095115 90.22156761331894 39.46676413095115 90.44578285995571 Q 39.46676413095115 90.66999810659249 39.46676413095115 90.89421335322926 Q 39.46676413095115 91.11842859986604 39.46676413095115 91.3426438465028 Q 39.46676413095115 91.56685909313957 39.46676413095115 91.79107433977634 Q 39.46676413095115 92.01528958641312 39.46676413095115 92.35161245636827 Q 39.46676413095115 92.68793532632343 39.46676413095115 92.9121505729602 Q 39.46676413095115 93.13636581959697 39.46676413095115 93.24847344291535 Q 39.46676413095115 93.36058106623375 39.46676413095115 93.58479631287051 Q 39.46676413095115 93.80901155950728 39.578871754269535 93.92111918282566 Q 39.69097937758792 94.03322680614406 39.69097937758792 94.25744205278083 Q 39.69097937758792 94.4816572994176 39.91519462422469 94.59376492273599 Q 40.139409870861456 94.70587254605437 40.139409870861456 94.81798016937276 Q 40.139409870861456 94.93008779269114 40.139409870861456 95.04219541600952 Q 40.139409870861456 95.15430303932791 40.139409870861456 95.37851828596469 Q 40.139409870861456 95.60273353260146 40.25151749417984 95.60273353260146 Q 40.36362511749823 95.60273353260146 40.36362511749823 95.71484115591984 Q 40.36362511749823 95.82694877923822 40.36362511749823 96.051164025875 Q 40.36362511749823 96.27537927251177 40.36362511749823 96.38748689583016 Q 40.36362511749823 96.49959451914854 40.587840364135005 96.61170214246692 Q 40.81205561077178 96.7238097657853 40.92416323409016 96.83591738910368 Q 41.03627085740854 96.94802501242208 41.03627085740854 97.06013263574047 Q 41.03627085740854 97.17224025905885 41.03627085740854 97.28434788237723 Q 41.03627085740854 97.39645550569563 41.148378480726926 97.39645550569563 Q 41.26048610404531 97.39645550569563 41.26048610404531 97.50856312901402 Q 41.26048610404531 97.6206707523324 41.26048610404531 97.84488599896918 Q 41.26048610404531 98.06910124560594 41.3725937273637 98.06910124560594 Q 41.48470135068209 98.06910124560594 41.70891659731886 98.18120886892433 Q 41.933131843955636 98.29331649224271 42.045239467274016 98.29331649224271 Q 42.157347090592395 98.29331649224271 42.157347090592395 98.40542411556109 Q 42.157347090592395 98.51753173887948 42.38156233722917 98.62963936219788 Q 42.605777583865944 98.74174698551626 42.71788520718433 98.85385460883464 Q 42.82999283050272 98.96596223215302 42.942100453821105 98.96596223215302 Q 43.05420807713949 98.96596223215302 43.16631570045787 99.0780698554714 Q 43.27842332377625 99.19017747878979 43.502638570413026 99.30228510210819 Q 43.7268538170498 99.41439272542657 43.83896144036819 99.63860797206334 Q 43.951069063686575 99.86282321870011 44.17528431032334 99.9749308420185 Q 44.39949955696011 100.08703846533687 44.39949955696011 100.19914608865525 Q 44.39949955696011 100.31125371197365 44.62371480359688 100.42336133529204 Q 44.84793005023366 100.53546895861042 44.960037673552044 100.6475765819288 Q 45.07214529687043 100.7596842052472 45.408468166825585 100.87179182856559 Q 45.74479103678074 100.98389945188397 45.74479103678074 101.09600707520235 Q 45.74479103678074 101.20811469852073 46.081113906735894 101.20811469852073 Q 46.41743677669105 101.20811469852073 46.529544400009435 101.4323299451575 Q 46.64165202332782 101.65654519179428 46.75375964664621 101.76865281511266 Q 46.865867269964596 101.88076043843105 47.20219013991975 101.99286806174945 Q 47.538513009874904 102.10497568506783 47.76272825651168 102.21708330838621 Q 47.98694350314845 102.32919093170459 48.21115874978523 102.44129855502297 Q 48.435373996422 102.55340617834136 48.54748161974038 102.66551380165976 Q 48.65958924305876 102.77762142497814 48.99591211301392 102.77762142497814 Q 49.332234982969084 102.77762142497814 49.332234982969084 102.88972904829652 Q 49.332234982969084 103.00183667161491 49.55645022960585 103.22605191825167 Q 49.78066547624262 103.45026716488844 50.00488072287939 103.56237478820682 Q 50.229095969516166 103.67448241152522 50.45331121615294 103.67448241152522 Q 50.677526462789714 103.67448241152522 50.90174170942648 103.67448241152522 Q 51.12595695606325 103.67448241152522 51.46227982601841 103.89869765816199 Q 51.79860269597357 104.12291290479877 51.79860269597357 104.23502052811716 Q 51.79860269597357 104.34712815143554 52.02281794261034 104.34712815143554 Q 52.247033189247105 104.34712815143554 52.35914081256549 104.45923577475392 Q 52.47124843588388 104.5713433980723 52.69546368252065 104.90766626802747 Q 52.91967892915743 105.24398913798262 53.143894175794195 105.35609676130102 Q 53.36810942243096 105.4682043846194 53.48021704574935 105.4682043846194 Q 53.592324669067736 105.4682043846194 53.70443229238612 105.69241963125617 Q 53.81653991570451 105.91663487789293 53.9286475390229 105.91663487789293 Q 54.040755162341284 105.91663487789293 54.37707803229644 106.02874250121133 Q 54.71340090225159 106.1408501245297 54.71340090225159 106.25295774784809 Q 54.71340090225159 106.36506537116648 55.04972377220675 106.70138824112163 Q 55.3860466421619 107.03771111107679 55.49815426548029 107.14981873439518 Q 55.610261888798675 107.26192635771356 55.72236951211706 107.26192635771356 Q 55.83447713543545 107.26192635771356 56.1708000053906 107.26192635771356 Q 56.50712287534576 107.26192635771356 56.73133812198253 107.48614160435034 Q 56.955553368619306 107.71035685098711 57.29187623857446 107.71035685098711 Q 57.628199108529614 107.71035685098711 57.964521978484775 107.82246447430549 Q 58.30084484843994 107.93457209762387 58.74927534171348 108.15878734426065 Q 59.19770583498702 108.38300259089742 59.64613632826056 108.38300259089742 Q 60.0945668215341 108.38300259089742 60.318782068170876 108.71932546085257 Q 60.54299731480765 109.05564833080773 60.99142780808119 109.05564833080773 Q 61.43985830135473 109.05564833080773 61.77618117130989 109.16775595412611 Q 62.11250404126504 109.2798635774445 62.4488269112202 109.2798635774445 Q 62.78514978117536 109.2798635774445 63.00936502781213 109.3919712007629 Q 63.2335802744489 109.50407882408128 63.45779552108567 109.61618644739966 Q 63.682010767722446 109.72829407071805 64.0183336376776 109.72829407071805 Q 64.35465650763275 109.72829407071805 64.46676413095113 109.72829407071805 Q 64.57887175426953 109.72829407071805 64.8030870009063 109.72829407071805 Q 65.02730224754308 109.72829407071805 65.25151749417984 109.72829407071805 Q 65.47573274081661 109.72829407071805 65.81205561077178 109.72829407071805 Q 66.14837848072693 109.72829407071805 66.26048610404533 109.72829407071805 Q 66.37259372736371 109.72829407071805 66.70891659731886 109.84040169403644 Q 67.04523946727402 109.95250931735482 67.26945471391079 109.95250931735482 Q 67.49366996054756 109.95250931735482 67.71788520718434 109.95250931735482 Q 67.9421004538211 109.95250931735482 68.05420807713949 109.95250931735482 Q 68.16631570045787 109.95250931735482 68.39053094709465 109.95250931735482 Q 68.61474619373142 109.95250931735482 68.8389614403682 109.95250931735482 Q 69.06317668700495 109.95250931735482 69.28739193364173 109.95250931735482 Q 69.5116071802785 109.95250931735482 69.73582242691526 110.0646169406732 Q 69.96003767355204 110.17672456399158 70.18425292018881 110.17672456399158 Q 70.40846816682559 110.17672456399158 70.63268341346236 110.17672456399158 Q 70.85689866009913 110.17672456399158 71.08111390673591 110.40093981062836 Q 71.30532915337267 110.62515505726513 71.52954440000944 110.62515505726513 Q 71.75375964664622 110.62515505726513 71.75375964664622 110.73726268058351 Q 71.75375964664622 110.8493703039019 72.09008251660137 110.8493703039019 Q 72.42640538655652 110.8493703039019 72.6506206331933 110.9614779272203 Q 72.87483587983007 111.07358555053868 72.98694350314847 111.07358555053868 Q 73.09905112646685 111.07358555053868 73.32326637310362 111.07358555053868 Q 73.54748161974038 111.07358555053868 73.77169686637716 111.18569317385706 Q 73.99591211301393 111.29780079717544 74.10801973633232 111.40990842049382 Q 74.2201273596507 111.52201604381222 74.44434260628748 111.63412366713061 Q 74.66855785292424 111.74623129044899 74.78066547624263 111.85833891376737 Q 74.89277309956101 111.97044653708576 75.11698834619779 112.19466178372252 Q 75.34120359283456 112.4188770303593 75.34120359283456 112.53098465367768 Q 75.34120359283456 112.64309227699607 75.56541883947133 112.75519990031447 Q 75.7896340861081 112.86730752363285 75.90174170942649 112.97941514695123 Q 76.01384933274487 113.09152277026962 76.01384933274487 113.20363039358801 Q 76.01384933274487 113.3157380169064 76.12595695606325 113.42784564022477 Q 76.23806457938164 113.53995326354315 76.23806457938164 113.65206088686153 Q 76.23806457938164 113.76416851017993 76.23806457938164 113.9883837568167 Q 76.23806457938164 114.21259900345348 76.12595695606325 113.9883837568167 Q 76.01384933274487 113.76416851017993 76.01384933274487 113.53995326354317 Q 76.01384933274487 113.3157380169064 76.01384933274487 112.86730752363285 Q 76.01384933274487 112.4188770303593 76.01384933274487 112.08255416040414 Q 76.01384933274487 111.74623129044899 76.01384933274487 111.18569317385706 Q 76.01384933274487 110.62515505726513 76.12595695606325 110.0646169406732 Q 76.23806457938164 109.50407882408128 76.35017220270004 109.05564833080774 Q 76.46227982601842 108.6072178375342 76.68649507265519 108.04667972094227 Q 76.91071031929195 107.48614160435034 77.02281794261033 107.03771111107679 Q 77.13492556592871 106.58928061780325 77.13492556592871 106.02874250121133 Q 77.13492556592871 105.4682043846194 77.2470331892471 105.01977389134585 Q 77.3591408125655 104.5713433980723 77.58335605920227 104.01080528148037 Q 77.80757130583905 103.45026716488844 77.80757130583905 102.77762142497814 Q 77.80757130583905 102.10497568506783 77.91967892915743 101.5444375684759 Q 78.03178655247581 100.98389945188397 78.03178655247581 100.42336133529204 Q 78.03178655247581 99.86282321870011 78.03178655247581 99.63860797206334 Q 78.03178655247581 99.41439272542657 78.03178655247581 99.07806985547141 Q 78.03178655247581 98.74174698551626 78.03178655247581 98.18120886892433 Q 78.03178655247581 97.6206707523324 78.03178655247581 97.06013263574047 Q 78.03178655247581 96.49959451914854 77.80757130583903 96.05116402587501 Q 77.58335605920226 95.60273353260146 77.47124843588388 95.15430303932791 Q 77.3591408125655 94.70587254605437 77.2470331892471 94.03322680614406 Q 77.13492556592871 93.36058106623375 77.13492556592871 93.0242581962786 Q 77.13492556592871 92.68793532632343 76.91071031929195 92.35161245636827 Q 76.68649507265518 92.01528958641312 76.68649507265518 91.56685909313958 Q 76.68649507265518 91.11842859986604 76.5743874493368 89.21259900345348 Q 76.46227982601842 87.30676940704092 76.46227982601842 87.19466178372252 Q 76.46227982601842 87.08255416040414 76.46227982601842 86.74623129044899 Q 76.46227982601842 86.40990842049384 76.46227982601842 85.8493703039019 Q 76.46227982601842 85.28883218730998 76.46227982601842 84.3919712007629 Q 76.46227982601842 83.4951102142158 76.46227982601842 83.38300259089742 Q 76.46227982601842 83.27089496757904 76.46227982601842 82.71035685098711 Q 76.46227982601842 82.14981873439518 76.68649507265519 81.70138824112163 Q 76.91071031929195 81.25295774784809 76.91071031929195 80.69241963125616 Q 76.91071031929195 80.13188151466423 77.02281794261033 79.5713433980723 Q 77.13492556592871 79.01080528148037 77.2470331892471 78.33815954157006 Q 77.3591408125655 77.66551380165976 77.58335605920227 77.21708330838621 Q 77.80757130583905 76.76865281511266 77.91967892915743 76.4323299451575 Q 78.03178655247581 76.09600707520235 78.36810942243096 75.53546895861042 Q 78.70443229238612 74.9749308420185 78.81653991570451 74.07806985547141 Q 78.9286475390229 73.18120886892433 79.26497040897806 72.6206707523324 Q 79.60129327893321 72.06013263574047 79.82550852556999 71.38748689583016 Q 80.04972377220676 70.71484115591984 80.27393901884352 70.15430303932791 Q 80.49815426548028 69.59376492273599 80.61026188879868 69.14533442946245 Q 80.72236951211707 68.6969039361889 80.83447713543545 68.13636581959697 Q 80.94658475875383 67.57582770300505 81.28290762870898 66.79107433977634 Q 81.61923049866414 66.00632097654764 81.73133812198253 65.5578904832741 Q 81.84344574530093 65.10945999000056 81.9555533686193 64.77313712004539 Q 82.06766099193769 64.43681425009024 82.29187623857446 63.87627613349831 Q 82.51609148521123 63.31573801690639 82.51609148521123 62.867307523632846 Q 82.51609148521123 62.418877030359305 82.51609148521123 61.97044653708576 Q 82.51609148521123 61.522016043812215 82.51609148521123 60.84937030390191 Q 82.51609148521123 60.17672456399159 82.51609148521123 59.504078824081276 Q 82.51609148521123 58.83143308417096 82.51609148521123 58.60721783753419 Q 82.51609148521123 58.38300259089742 82.51609148521123 58.158787344260645 Q 82.51609148521123 57.93457209762388 82.51609148521123 57.48614160435034 Q 82.51609148521123 57.03771111107679 82.74030673184801 56.813495864440014 Q 82.96452197848478 56.58928061780325 83.07662960180316 56.140850124529706 Q 83.18873722512154 55.692419631256165 83.18873722512154 55.356096761301 Q 83.18873722512154 55.01977389134585 83.30084484843994 54.45923577475392 Q 83.41295247175833 53.89869765816199 83.52506009507671 53.67448241152522 Q 83.63716771839509 53.45026716488845 83.86138296503186 53.00183667161491 Q 84.08559821166864 52.55340617834136 84.19770583498702 52.10497568506782 Q 84.3098134583054 51.65654519179428 84.53402870494217 51.20811469852073 Q 84.75824395157895 50.75968420524719 84.98245919821572 50.31125371197365 Q 85.2066744448525 49.86282321870011 85.2066744448525 49.526500348744946 Q 85.2066744448525 49.19017747878979 85.43088969148927 48.629639362197864 Q 85.65510493812604 48.069101245605935 85.8793201847628 47.50856312901401 Q 86.10353543139956 46.94802501242208 86.10353543139956 46.38748689583015 Q 86.10353543139956 45.82694877923822 86.32775067803634 45.266410662646294 Q 86.55196592467311 44.705872546054366 86.55196592467311 44.257442052780824 Q 86.55196592467311 43.80901155950728 86.6640735479915 43.47268868955213 Q 86.7761811713099 43.13636581959697 86.7761811713099 42.9121505729602 Q 86.7761811713099 42.68793532632343 86.88828879462828 42.239504833049885 Q 87.00039641794666 41.791074339776344 87.11250404126504 41.56685909313957 Q 87.22461166458342 41.342643846502796 87.4488269112202 41.11842859986602 Q 87.67304215785697 40.894213353229254 87.67304215785697 40.44578285995571 Q 87.67304215785697 39.99735236668217 87.78514978117536 39.54892187340863 Q 87.89725740449376 39.10049138013508 87.89725740449376 38.87627613349831 Q 87.89725740449376 38.65206088686154 87.89725740449376 38.427845640224774 Q 87.89725740449376 38.203630393588 88.12147265113052 37.75519990031446 Q 88.34568789776728 37.30676940704092 88.45779552108567 37.08255416040414 Q 88.56990314440407 36.85833891376737 88.68201076772245 36.522016043812215 Q 88.79411839104083 36.18569317385706 88.90622601435922 35.84937030390191 Q 89.01833363767761 35.513047433946745 89.24254888431437 35.064616940673204 Q 89.46676413095113 34.616186447399656 89.57887175426953 34.504078824081276 Q 89.69097937758792 34.39197120076289 89.69097937758792 34.16775595412612 Q 89.69097937758792 33.94354070748935 89.69097937758792 33.71932546085257 Q 89.69097937758792 33.4951102142158 89.9151946242247 33.38300259089742 Q 90.13940987086147 33.27089496757903 90.25151749417985 33.046679720942265 Q 90.36362511749823 32.82246447430549 90.47573274081661 32.82246447430549 Q 90.58784036413499 32.82246447430549 90.58784036413499 32.710356850987104 Q 90.58784036413499 32.59824922766872 90.58784036413499 32.710356850987104 Q 90.58784036413499 32.82246447430549 90.58784036413499 33.27089496757903 Q 90.58784036413499 33.71932546085257 90.58784036413499 34.167755954126115 Q 90.58784036413499 34.616186447399656 90.58784036413499 35.28883218730997 Q 90.58784036413499 35.96147792722029 90.25151749417984 36.6341236671306 Q 89.91519462422468 37.30676940704092 89.57887175426953 37.75519990031446 Q 89.24254888431437 38.203630393588 89.0183336376776 38.876276133498315 Q 88.79411839104083 39.54892187340863 88.79411839104083 40.22156761331894 Q 88.79411839104083 40.894213353229254 88.56990314440405 41.342643846502796 Q 88.34568789776728 41.791074339776344 88.12147265113052 42.68793532632343 Q 87.89725740449376 43.58479631287051 87.44882691122021 44.257442052780824 Q 87.00039641794666 44.93008779269114 86.55196592467311 45.71484115591984 Q 86.10353543139956 46.49959451914854 85.65510493812603 47.28434788237723 Q 85.2066744448525 48.069101245605935 84.30981345830541 49.414392725426566 Q 83.41295247175833 50.75968420524719 83.30084484843994 51.20811469852073 Q 83.18873722512154 51.65654519179428 82.85241435516639 52.66551380165975 Q 82.51609148521123 53.67448241152522 81.84344574530093 55.01977389134585 Q 81.17080000539062 56.36506537116647 80.72236951211707 57.03771111107679 Q 80.27393901884352 57.710356850987104 79.82550852556997 58.71932546085257 Q 79.37707803229642 59.72829407071804 78.70443229238612 60.62515505726513 Q 78.03178655247581 61.522016043812215 77.2470331892471 62.867307523632846 Q 76.46227982601842 64.21259900345348 75.90174170942649 65.44578285995571 Q 75.34120359283456 66.67896671645795 74.33223498296908 67.68793532632343 Q 73.3232663731036 68.6969039361889 72.6506206331933 69.36954967609921 Q 71.97797489328299 70.04219541600952 71.30532915337267 70.93905640255662 Q 70.63268341346236 71.8359173891037 70.18425292018881 72.50856312901402 Q 69.73582242691528 73.18120886892433 69.06317668700495 73.96596223215303 Q 68.39053094709465 74.75071559538172 67.71788520718434 75.53546895861042 Q 67.04523946727402 76.32022232183913 66.3725937273637 77.55340617834136 Q 65.69994798745338 78.78659003484361 64.69097937758792 80.4682043846194 Q 63.682010767722446 82.14981873439518 63.233580274448904 83.15878734426065 Q 62.78514978117536 84.16775595412612 62.00039641794666 85.1767245639916 Q 61.21564305471796 86.18569317385706 60.65510493812603 86.97044653708576 Q 60.0945668215341 87.75519990031447 59.64613632826056 88.42784564022477 Q 59.19770583498702 89.10049138013508 58.973490588350245 89.54892187340863 Q 58.74927534171347 89.99735236668218 58.525060095076704 90.10945999000056 Q 58.30084484843994 90.22156761331894 58.412952471758324 90.22156761331894 Q 58.52506009507671 90.22156761331894 59.19770583498702 89.54892187340863 Q 59.87035157489733 88.87627613349832 60.430889691489256 87.75519990031447 Q 60.991427808081184 86.63412366713061 61.888288794628274 83.94354070748935 Q 62.78514978117536 81.25295774784809 64.13044126099598 77.44129855502297 Q 65.47573274081661 73.62963936219786 66.3725937273637 71.051164025875 Q 67.26945471391079 68.47268868955213 68.05420807713949 66.67896671645795 Q 68.83896144036818 64.88524474336378 69.28739193364173 64.21259900345348 Q 69.73582242691528 63.53995326354316 69.73582242691528 63.203630393588 Q 69.73582242691528 62.867307523632846 69.73582242691528 62.64309227699607 Q 69.73582242691528 62.418877030359305 69.73582242691528 62.53098465367769 Q 69.73582242691528 62.64309227699607 69.17528431032335 63.427845640224774 Q 68.61474619373142 64.21259900345348 68.05420807713949 65.89421335322926 Q 67.49366996054756 67.57582770300505 66.70891659731886 69.59376492273599 Q 65.92416323409016 71.61170214246692 65.13940987086146 74.63860797206334 Q 64.35465650763275 77.66551380165976 63.794118391040826 78.67448241152522 Q 63.2335802744489 79.6834510213907 63.00936502781213 80.35609676130102 Q 62.78514978117536 81.02874250121133 62.673042157856976 81.36506537116648 Q 62.56093453453859 81.70138824112163 62.336719287901815 82.37403398103194 Q 62.11250404126504 83.04667972094227 62.00039641794666 83.83143308417095 Q 61.88828879462828 84.61618644739966 61.55196592467312 85.28883218730996 Q 61.21564305471796 85.96147792722029 60.879320184762804 86.40990842049382 Q 60.54299731480765 86.85833891376737 60.54299731480765 87.08255416040414 Q 60.54299731480765 87.30676940704092 60.43088969148926 87.30676940704092 Q 60.318782068170876 87.30676940704092 59.98245919821572 86.97044653708576 Q 59.64613632826057 86.63412366713061 59.42192108162379 86.18569317385706 Q 59.19770583498702 85.73726268058351 59.08559821166863 84.95250931735481 Q 58.973490588350245 84.16775595412612 58.86138296503186 83.38300259089742 Q 58.74927534171347 82.59824922766872 58.74927534171347 81.81349586444003 Q 58.74927534171347 81.02874250121133 58.74927534171347 80.80452725457455 Q 58.74927534171347 80.58031200793778 58.74927534171347 80.46820438461938 Q 58.74927534171347 80.356096761301 58.525060095076704 80.356096761301 Q 58.30084484843994 80.356096761301 57.852414355166395 81.02874250121133 Q 57.403983861892854 81.70138824112163 57.06766099193769 82.37403398103194 Q 56.73133812198253 83.04667972094227 56.1708000053906 83.6072178375342 Q 55.610261888798675 84.16775595412612 55.38604664216191 84.72829407071805 Q 55.16183139552514 85.28883218730998 54.71340090225159 85.9614779272203 Q 54.264970408978044 86.63412366713061 53.8165399157045 87.19466178372254 Q 53.36810942243096 87.75519990031447 53.36810942243096 88.09152277026962 Q 53.36810942243096 88.42784564022477 53.143894175794195 88.42784564022477 Q 52.91967892915743 88.42784564022477 52.91967892915743 88.53995326354317 Q 52.91967892915743 88.65206088686155 53.03178655247581 88.42784564022477 Q 53.14389417579419 88.203630393588 53.592324669067736 87.41887703035931 Q 54.040755162341284 86.63412366713061 54.82550852556998 85.62515505726513 Q 55.610261888798675 84.61618644739966 56.1708000053906 83.27089496757904 Q 56.73133812198253 81.92560348775841 56.955553368619306 81.58928061780324 Q 57.17976861525608 81.25295774784809 57.17976861525608 81.36506537116648 Q 57.17976861525608 81.47717299448486 56.84344574530092 82.26192635771356 Q 56.50712287534576 83.04667972094227 56.50712287534576 83.94354070748935 Q 56.50712287534576 84.84040169403643 55.94658475875383 85.62515505726513 Q 55.3860466421619 86.40990842049384 54.93761614888836 86.97044653708576 Q 54.48918565561482 87.53098465367769 54.04075516234128 88.20363039358801 Q 53.592324669067736 88.87627613349832 52.91967892915742 89.54892187340863 Q 52.247033189247105 90.22156761331894 52.13492556592872 90.33367523663733 Q 52.02281794261033 90.44578285995571 51.91071031929195 90.44578285995571 Q 51.79860269597357 90.44578285995571 51.5743874493368 90.44578285995571 Q 51.35017220270002 90.44578285995571 50.90174170942648 90.44578285995571 Q 50.45331121615294 90.44578285995571 50.11698834619778 90.44578285995571 Q 49.78066547624262 90.44578285995571 49.22012735965069 90.22156761331894 Q 48.65958924305876 89.99735236668218 48.32326637310361 89.43681425009025 Q 47.98694350314845 88.87627613349832 47.76272825651168 88.20363039358801 Q 47.538513009874904 87.53098465367769 47.20219013991975 86.97044653708576 Q 46.865867269964596 86.40990842049384 46.75375964664621 86.07358555053867 Q 46.64165202332782 85.73726268058351 46.529544400009435 86.07358555053867 Q 46.41743677669105 86.40990842049384 46.19322153005428 87.64309227699607 Q 45.969006283417514 88.87627613349832 45.969006283417514 89.66102949672702 Q 45.969006283417514 90.44578285995571 45.969006283417514 91.00632097654764 Q 45.969006283417514 91.56685909313957 45.85689866009913 92.23950483304989 Q 45.74479103678074 92.9121505729602 45.74479103678074 93.36058106623375 Q 45.74479103678074 93.80901155950728 46.19322153005428 93.80901155950728 Q 46.64165202332782 93.80901155950728 47.20219013991975 93.80901155950728 Q 47.76272825651168 93.80901155950728 48.32326637310361 93.80901155950728 Q 48.883804489695535 93.80901155950728 49.780665476242625 93.80901155950728 Q 50.677526462789714 93.80901155950728 51.686495072655184 94.25744205278082 Q 52.69546368252065 94.70587254605437 53.48021704574935 95.2664106626463 Q 54.264970408978044 95.82694877923822 54.93761614888836 96.49959451914853 Q 55.610261888798675 97.17224025905885 56.1708000053906 97.73277837565078 Q 56.73133812198253 98.29331649224271 57.40398386189285 99.07806985547141 Q 58.07662960180316 99.86282321870011 58.525060095076704 100.08703846533689 Q 58.973490588350245 100.31125371197365 59.53402870494217 100.6475765819288 Q 60.0945668215341 100.98389945188397 60.318782068170876 100.98389945188397 Q 60.54299731480765 100.98389945188397 60.65510493812604 100.98389945188397 Q 60.767212561444424 100.98389945188397 61.215643054717965 100.7596842052472 Q 61.66407354799151 100.53546895861042 62.224611664583435 99.9749308420185 Q 62.78514978117536 99.41439272542657 63.45779552108568 98.62963936219786 Q 64.130441260996 97.84488599896916 64.8030870009063 96.72380976578532 Q 65.47573274081661 95.60273353260146 66.82102422063724 91.56685909313958 Q 68.16631570045787 87.53098465367769 69.06317668700495 84.95250931735481 Q 69.96003767355204 82.37403398103194 70.2963605435072 81.70138824112163 Q 70.63268341346236 81.02874250121133 70.63268341346236 80.69241963125617 Q 70.63268341346236 80.356096761301 70.2963605435072 80.91663487789293 Q 69.96003767355204 81.47717299448486 69.5116071802785 83.4951102142158 Q 69.06317668700495 85.51304743394675 68.50263857041303 87.19466178372254 Q 67.9421004538211 88.87627613349832 67.1573470905924 91.11842859986604 Q 66.37259372736371 93.36058106623375 65.92416323409016 94.36954967609921 Q 65.47573274081661 95.37851828596469 65.47573274081661 96.16327164919338 Q 65.47573274081661 96.94802501242208 65.47573274081661 97.39645550569563 Q 65.47573274081661 97.84488599896916 65.47573274081661 97.95699362228754 Q 65.47573274081661 98.06910124560594 65.58784036413499 98.06910124560594 Q 65.69994798745338 98.06910124560594 65.81205561077178 98.06910124560594 Q 65.92416323409016 98.06910124560594 66.14837848072693 97.62067075233239 Q 66.37259372736371 97.17224025905885 66.82102422063724 96.49959451914853 Q 67.26945471391079 95.82694877923822 67.71788520718434 94.70587254605437 Q 68.16631570045787 93.58479631287051 68.8389614403682 92.0152895864131 Q 69.5116071802785 90.44578285995571 70.07214529687043 89.88524474336378 Q 70.63268341346236 89.32470662677186 70.74479103678075 89.21259900345348 Q 70.85689866009913 89.10049138013508 70.85689866009913 89.54892187340863 Q 70.85689866009913 89.99735236668218 70.85689866009913 91.00632097654764 Q 70.85689866009913 92.01528958641312 70.85689866009913 94.70587254605437 Q 70.85689866009913 97.39645550569563 70.63268341346236 99.8628232187001 Q 70.40846816682559 102.32919093170459 69.73582242691526 104.34712815143553 Q 69.06317668700495 106.36506537116648 69.06317668700495 107.14981873439518 Q 69.06317668700495 107.93457209762387 69.06317668700495 108.4951102142158 Q 69.06317668700495 109.05564833080773 69.17528431032335 109.16775595412611 Q 69.28739193364173 109.2798635774445 69.39949955696011 109.2798635774445 Q 69.5116071802785 109.2798635774445 69.5116071802785 108.83143308417095 Q 69.5116071802785 108.38300259089742 69.73582242691526 107.48614160435034 Q 69.96003767355204 106.58928061780325 70.40846816682559 106.02874250121133 Q 70.85689866009913 105.4682043846194 70.85689866009913 105.01977389134585 Q 70.85689866009913 104.5713433980723 71.08111390673591 104.23502052811715 Q 71.30532915337267 103.89869765816199 71.30532915337267 103.78659003484361 Q 71.30532915337267 103.67448241152522 71.30532915337267 103.89869765816199 Q 71.30532915337267 104.12291290479877 71.30532915337267 104.23502052811716 Q 71.30532915337267 104.34712815143554 71.30532915337267 104.57134339807232 Q 71.30532915337267 104.79555864470908 71.19322153005427 104.79555864470908 Q 71.0811139067359 104.79555864470908 71.0811139067359 104.90766626802747 Q 71.0811139067359 105.01977389134585 70.96900628341751 105.24398913798262 Q 70.85689866009913 105.4682043846194 70.74479103678075 105.4682043846194 Q 70.63268341346236 105.4682043846194 70.40846816682559 105.80452725457455 Q 70.18425292018881 106.1408501245297 70.07214529687042 106.25295774784809 Q 69.96003767355204 106.36506537116648 69.84793005023366 106.58928061780324 Q 69.73582242691528 106.81349586444001 69.5116071802785 107.03771111107679 Q 69.28739193364173 107.26192635771356 69.39949955696011 107.26192635771356 Q 69.5116071802785 107.26192635771356 69.6237148035969 107.26192635771356 Q 69.73582242691528 107.26192635771356 69.84793005023366 107.26192635771356 Q 69.96003767355204 107.26192635771356 70.07214529687042 107.26192635771356 Q 70.18425292018881 107.26192635771356 70.2963605435072 107.59824922766872 Q 70.40846816682559 107.93457209762387 70.63268341346236 108.15878734426065 Q 70.85689866009913 108.38300259089742 71.19322153005429 108.71932546085257 Q 71.52954440000944 109.05564833080773 71.64165202332782 109.3919712007629 Q 71.75375964664622 109.72829407071805 72.20219013991976 110.28883218730998 Q 72.6506206331933 110.8493703039019 72.87483587983007 111.29780079717546 Q 73.09905112646685 111.74623129044899 73.65958924305878 112.19466178372252 Q 74.2201273596507 112.64309227699607 74.44434260628748 113.09152277026962 Q 74.66855785292424 113.53995326354315 74.78066547624263 113.76416851017993 Q 74.89277309956101 113.9883837568167 75.11698834619779 114.21259900345348 Q 75.34120359283456 114.43681425009025 75.7896340861081 114.54892187340863 Q 76.23806457938164 114.66102949672701 76.35017220270004 114.88524474336378 Q 76.46227982601842 115.10945999000056 76.79860269597356 115.22156761331894 Q 77.13492556592871 115.33367523663733 77.47124843588388 115.44578285995573 Q 77.80757130583905 115.55789048327411 77.91967892915743 115.55789048327411 Q 78.03178655247581 115.55789048327411 78.03178655247581 115.66999810659249 Q 78.03178655247581 115.78210572991087 78.03178655247581 115.89421335322925 Q 78.03178655247581 116.00632097654764 77.91967892915743 116.00632097654764 Q 77.80757130583905 116.00632097654764 77.47124843588388 116.00632097654764 Q 77.13492556592871 116.00632097654764 77.02281794261033 116.00632097654764 Q 76.91071031929195 116.00632097654764 76.5743874493368 116.00632097654764 Q 76.23806457938164 116.00632097654764 76.12595695606325 116.00632097654764 Q 76.01384933274487 116.00632097654764 75.7896340861081 116.00632097654764 Q 75.56541883947132 116.00632097654764 75.45331121615294 116.00632097654764 Q 75.34120359283456 116.00632097654764 75.22909596951618 116.00632097654764 Q 75.11698834619779 116.00632097654764 75.00488072287939 116.00632097654764 Q 74.89277309956101 116.00632097654764 74.78066547624263 116.00632097654764 Q 74.66855785292424 116.00632097654764 74.44434260628748 116.00632097654764 Q 74.2201273596507 116.00632097654764 73.99591211301393 116.00632097654764 Q 73.77169686637716 116.00632097654764 73.65958924305878 116.11842859986604 Q 73.54748161974038 116.23053622318442 73.54748161974038 116.3426438465028 Q 73.54748161974038 116.45475146982119 73.43537399642199 116.45475146982119 Q 73.3232663731036 116.45475146982119 73.3232663731036 116.67896671645795 Q 73.3232663731036 116.90318196309472 73.3232663731036 116.79107433977634 Q 73.3232663731036 116.67896671645796 73.3232663731036 116.56685909313958 Q 73.3232663731036 116.45475146982119 73.3232663731036 116.3426438465028 Q 73.3232663731036 116.23053622318442 73.3232663731036 116.11842859986604 Q 73.3232663731036 116.00632097654764 73.3232663731036 115.89421335322925 Q 73.3232663731036 115.78210572991087 73.43537399642199 115.78210572991087 Q 73.54748161974038 115.78210572991087 73.54748161974038 115.5578904832741 Q 73.54748161974038 115.33367523663733 73.54748161974038 115.10945999000056 Q 73.54748161974038 114.88524474336378 73.77169686637716 114.88524474336378 Q 73.99591211301393 114.88524474336378 73.99591211301393 114.54892187340863 L 73.99591211301393 114.20259900345347" stroke-linecap="round" />
</g>
<g transform="matrix(1.31 0 0 1.31 75.57 75.76)" id="0qrNNzcugc1D1WDmrKCdk"  >
<path style="stroke: rgb(0,0,0); stroke-width: 6; stroke-dasharray: none; stroke-linecap: round; stroke-dashoffset: 0; stroke-linejoin: round; stroke-miterlimit: 10; fill: none; fill-rule: nonzero; opacity: 1;" vector-effect="non-scaling-stroke"  transform=" translate(-63.87, -65.75)" d="M 95.19830769230774 11.772846153846153 Q 95.19230769230774 11.778846153846153 94.4711538461539 12.5 Q 93.75000000000006 13.221153846153847 92.78846153846159 15.024038461538462 Q 91.82692307692312 16.826923076923077 90.86538461538467 18.389423076923077 Q 89.90384615384622 19.951923076923077 89.18269230769236 21.875 Q 88.46153846153851 23.798076923076923 87.62019230769236 25.60096153846154 Q 86.77884615384622 27.403846153846153 85.93750000000006 29.08653846153846 Q 85.0961538461539 30.769230769230766 84.25480769230774 32.57211538461539 Q 83.41346153846158 34.375 82.69230769230774 36.05769230769231 Q 81.9711538461539 37.74038461538461 80.88942307692312 39.30288461538461 Q 79.80769230769235 40.86538461538461 79.08653846153851 41.70673076923077 Q 78.36538461538467 42.54807692307692 77.64423076923082 43.62980769230769 Q 76.92307692307696 44.71153846153846 75.7211538461539 46.63461538461539 Q 74.51923076923083 48.55769230769231 73.31730769230775 51.08173076923077 Q 72.11538461538467 53.605769230769226 70.79326923076928 55.76923076923077 Q 69.4711538461539 57.93269230769231 68.14903846153851 59.73557692307692 Q 66.82692307692312 61.53846153846153 65.74519230769235 62.13942307692307 Q 64.66346153846159 62.74038461538461 62.98076923076928 63.942307692307686 Q 61.29807692307698 65.14423076923076 59.73557692307698 66.10576923076923 Q 58.17307692307698 67.0673076923077 56.61057692307698 67.78846153846153 Q 55.04807692307698 68.50961538461537 53.36538461538467 69.83173076923076 Q 51.68269230769236 71.15384615384615 49.63942307692313 72.47596153846153 Q 47.596153846153896 73.79807692307692 45.79326923076928 74.51923076923077 Q 43.99038461538467 75.24038461538461 42.30769230769236 76.5625 Q 40.62500000000006 77.88461538461537 39.30288461538467 79.80769230769229 Q 37.98076923076928 81.73076923076923 37.01923076923082 82.8125 Q 36.05769230769236 83.89423076923076 35.45673076923082 85.21634615384615 Q 34.85576923076928 86.53846153846153 34.01442307692313 87.62019230769229 Q 33.17307692307698 88.70192307692307 33.05288461538467 89.90384615384615 Q 32.93269230769236 91.10576923076923 32.69230769230775 92.30769230769229 Q 32.45192307692314 93.50961538461537 33.173076923076984 95.43269230769229 Q 33.89423076923083 97.35576923076923 34.61538461538467 98.67788461538461 Q 35.33653846153851 99.99999999999999 36.17788461538467 101.08173076923076 Q 37.01923076923083 102.16346153846153 37.98076923076929 103.00480769230768 Q 38.94230769230775 103.84615384615384 39.90384615384621 104.56730769230768 Q 40.86538461538467 105.28846153846153 41.82692307692313 106.00961538461539 Q 42.78846153846159 106.73076923076923 44.71153846153852 107.8125 Q 46.634615384615444 108.89423076923076 48.55769230769236 109.7355769230769 Q 50.48076923076928 110.57692307692307 51.44230769230774 111.05769230769229 Q 52.4038461538462 111.53846153846153 56.61057692307698 112.62019230769229 Q 60.81730769230775 113.70192307692307 62.86057692307698 114.66346153846152 Q 64.9038461538462 115.62499999999999 65.62500000000006 115.62499999999999 Q 66.3461538461539 115.62499999999999 66.82692307692312 116.10576923076923 Q 67.30769230769236 116.58653846153845 67.66826923076928 116.58653846153845 Q 68.02884615384622 116.58653846153845 68.38942307692314 116.58653846153845 Q 68.75000000000006 116.58653846153845 68.75000000000006 116.70673076923076 Q 68.75000000000006 116.82692307692307 69.23076923076928 117.06730769230768 Q 69.71153846153851 117.30769230769229 70.19230769230774 117.5480769230769 Q 70.67307692307696 117.78846153846153 71.1538461538462 118.26923076923076 Q 71.63461538461544 118.74999999999999 71.99519230769236 119.23076923076923 L 72.36176923076928 119.71753846153845" stroke-linecap="round" />
</g>
<g transform="matrix(1 0 0 1 -26.43 57.57)" id="_RL8R5sCPawth1c2_6L68"  >
<path style="stroke: rgb(0,0,0); stroke-width: 6; stroke-dasharray: none; stroke-linecap: round; stroke-dashoffset: 0; stroke-linejoin: round; stroke-miterlimit: 10; fill: none; fill-rule: nonzero; opacity: 1;" vector-effect="non-scaling-stroke"  transform=" translate(26.68, -57.57)" d="M -26.68869230769225 57.21153846153846 Q -26.68269230769225 57.21153846153846 -26.68269230769225 57.57211538461539 L -26.67669230769225 57.93269230769231" stroke-linecap="round" />
</g>
<g transform="matrix(1.31 0 0 1.31 84.48 119.67)" id="0ee6RXlypV97xVgizvnuq"  >
<path style="stroke: rgb(152,95,0); stroke-width: 10; stroke-dasharray: none; stroke-linecap: round; stroke-dashoffset: 0; stroke-linejoin: round; stroke-miterlimit: 10; fill: none; fill-rule: nonzero; opacity: 1;" vector-effect="non-scaling-stroke"  transform=" translate(-74.01, -112.16)" d="M 74.67645223822188 110.99563425892867 Q 74.67645223822188 110.99863425892867 74.67645223822188 111.16419717283597 Q 74.67645223822188 111.32976008674325 74.67645223822188 111.49532300065053 Q 74.67645223822188 111.66088591455781 74.67645223822188 111.99201174237238 Q 74.67645223822188 112.32313757018696 74.67645223822188 112.48870048409424 Q 74.67645223822188 112.65426339800152 74.67645223822188 112.98538922581609 Q 74.67645223822188 113.31651505363067 74.5108893243146 113.31651505363067 Q 74.34532641040732 113.31651505363067 73.84863766868547 112.98538922581609 L 73.34894892696362 112.65126339800152" stroke-linecap="round" />
</g>
<g transform="matrix(1 0 0 1 65.14 110.7)" id="1jdbFJpIpq_-_6LxJZq81"  >
<path style="stroke: rgb(152,95,0); stroke-width: 6; stroke-dasharray: none; stroke-linecap: round; stroke-dashoffset: 0; stroke-linejoin: round; stroke-miterlimit: 10; fill: none; fill-rule: nonzero; opacity: 1;" vector-effect="non-scaling-stroke"  transform=" translate(-65.14, -110.7)" d="M 69.4771538461539 105.29446153846153 Q 69.4711538461539 105.28846153846153 69.11057692307698 105.16826923076923 Q 68.75000000000006 105.04807692307692 68.26923076923083 104.92788461538461 Q 67.78846153846159 104.80769230769229 67.30769230769235 104.32692307692307 Q 66.82692307692312 103.84615384615384 65.50480769230774 103.00480769230768 Q 64.18269230769236 102.16346153846153 63.58173076923082 101.68269230769229 Q 62.98076923076928 101.20192307692307 62.25961538461544 100.72115384615384 Q 61.53846153846159 100.24038461538461 61.29807692307698 100.24038461538461 Q 61.05769230769236 100.24038461538461 60.93750000000006 99.87980769230768 Q 60.81730769230775 99.51923076923076 60.69711538461544 99.27884615384615 Q 60.57692307692312 99.03846153846153 60.57692307692312 98.55769230769229 Q 60.57692307692312 98.07692307692307 60.81730769230774 97.59615384615384 Q 61.05769230769236 97.11538461538461 61.53846153846159 96.75480769230768 Q 62.019230769230816 96.39423076923076 62.50000000000005 96.39423076923076 Q 62.98076923076928 96.39423076923076 63.70192307692313 96.15384615384615 Q 64.42307692307698 95.91346153846153 64.90384615384622 95.67307692307692 Q 65.38461538461544 95.4326923076923 66.10576923076928 94.95192307692307 Q 66.82692307692312 94.47115384615384 67.30769230769235 94.23076923076923 Q 67.78846153846159 93.99038461538461 68.38942307692312 93.87019230769229 Q 68.99038461538467 93.74999999999999 69.23076923076928 93.74999999999999 Q 69.4711538461539 93.74999999999999 69.5913461538462 93.74999999999999 Q 69.71153846153851 93.74999999999999 69.83173076923082 93.74999999999999 Q 69.95192307692312 93.74999999999999 69.95192307692312 93.62980769230768 Q 69.95192307692312 93.50961538461537 69.4711538461539 93.99038461538461 Q 68.99038461538467 94.47115384615384 68.14903846153851 95.43269230769229 Q 67.30769230769236 96.39423076923076 66.58653846153851 97.11538461538461 Q 65.86538461538467 97.83653846153845 65.26442307692312 98.31730769230768 Q 64.66346153846159 98.79807692307692 63.94230769230774 99.27884615384615 Q 63.221153846153896 99.75961538461537 62.25961538461544 100.84134615384615 Q 61.29807692307698 101.92307692307692 60.81730769230774 102.04326923076923 Q 60.33653846153851 102.16346153846153 60.096153846153896 102.28365384615384 Q 59.85576923076928 102.40384615384615 59.73557692307698 102.40384615384615 Q 59.61538461538467 102.40384615384615 59.61538461538467 101.9230769230769 Q 59.61538461538467 101.44230769230768 60.21634615384621 100.48076923076923 Q 60.81730769230775 99.51923076923076 61.41826923076928 98.91826923076923 Q 62.019230769230816 98.31730769230768 62.98076923076928 97.35576923076923 Q 63.94230769230775 96.39423076923076 64.54326923076928 95.6730769230769 Q 65.14423076923082 94.95192307692307 65.98557692307696 94.23076923076923 Q 66.82692307692312 93.50961538461537 67.42788461538467 92.90865384615384 Q 68.02884615384622 92.3076923076923 68.38942307692314 91.82692307692307 Q 68.75000000000006 91.34615384615384 69.23076923076928 90.9855769230769 Q 69.71153846153851 90.62499999999999 69.83173076923082 90.62499999999999 Q 69.95192307692312 90.62499999999999 70.19230769230774 90.62499999999999 Q 70.43269230769235 90.62499999999999 70.07211538461543 90.86538461538461 Q 69.71153846153851 91.10576923076923 68.62980769230774 91.82692307692307 Q 67.54807692307698 92.54807692307692 66.58653846153851 93.26923076923077 Q 65.62500000000006 93.99038461538461 64.42307692307698 95.07211538461539 Q 63.221153846153896 96.15384615384615 62.620192307692356 96.75480769230768 Q 62.019230769230816 97.35576923076923 61.17788461538466 98.07692307692307 Q 60.33653846153851 98.79807692307692 60.096153846153896 99.27884615384615 Q 59.85576923076928 99.75961538461537 59.85576923076928 99.87980769230768 Q 59.85576923076928 99.99999999999999 59.85576923076928 99.63942307692307 Q 59.85576923076928 99.27884615384615 60.57692307692313 98.31730769230768 Q 61.29807692307698 97.35576923076923 62.25961538461544 96.39423076923077 Q 63.221153846153896 95.4326923076923 64.06250000000006 94.83173076923077 Q 64.9038461538462 94.23076923076923 65.86538461538467 93.26923076923077 Q 66.82692307692312 92.3076923076923 67.42788461538467 91.46634615384615 Q 68.02884615384622 90.62499999999999 68.50961538461544 90.14423076923076 Q 68.99038461538467 89.66346153846153 68.87019230769236 89.78365384615384 Q 68.75000000000006 89.90384615384615 68.02884615384622 90.625 Q 67.30769230769236 91.34615384615384 66.46634615384622 92.06730769230768 Q 65.62500000000006 92.78846153846153 64.7836538461539 93.50961538461539 Q 63.94230769230775 94.23076923076923 63.2211538461539 94.83173076923077 Q 62.50000000000006 95.4326923076923 61.77884615384621 95.91346153846153 Q 61.05769230769236 96.39423076923076 61.05769230769236 96.63461538461537 Q 61.05769230769236 96.87499999999999 61.05769230769236 96.63461538461537 Q 61.05769230769236 96.39423076923076 61.53846153846159 95.91346153846153 Q 62.019230769230816 95.4326923076923 62.50000000000005 94.83173076923077 Q 62.98076923076928 94.23076923076923 64.06250000000006 92.90865384615384 Q 65.14423076923082 91.58653846153845 66.22596153846159 90.74519230769229 Q 67.30769230769236 89.90384615384615 68.75000000000006 88.94230769230768 Q 70.19230769230774 87.98076923076923 71.51442307692312 87.01923076923077 Q 72.83653846153851 86.0576923076923 73.67788461538467 85.33653846153845 Q 74.51923076923083 84.61538461538461 75.12019230769236 84.25480769230768 Q 75.7211538461539 83.89423076923076 75.60096153846159 83.89423076923076 Q 75.48076923076928 83.89423076923076 74.87980769230775 84.49519230769229 Q 74.27884615384622 85.09615384615384 73.31730769230775 85.81730769230768 Q 72.35576923076928 86.53846153846153 71.0336538461539 87.5 Q 69.71153846153851 88.46153846153845 66.70673076923082 90.02403846153845 Q 63.70192307692312 91.58653846153845 61.89903846153851 92.30769230769229 Q 60.096153846153896 93.02884615384615 58.05288461538467 94.1105769230769 Q 56.009615384615444 95.19230769230768 55.16826923076929 95.91346153846152 Q 54.32692307692314 96.63461538461537 53.8461538461539 97.35576923076923 Q 53.36538461538467 98.07692307692307 52.88461538461544 98.67788461538461 Q 52.4038461538462 99.27884615384615 52.16346153846159 99.87980769230768 Q 51.92307692307698 100.48076923076923 51.68269230769236 100.96153846153845 Q 51.44230769230775 101.44230769230768 51.44230769230775 101.68269230769229 Q 51.44230769230775 101.92307692307692 51.44230769230775 101.80288461538461 Q 51.44230769230775 101.68269230769229 51.20192307692313 101.08173076923076 Q 50.96153846153851 100.48076923076923 51.20192307692313 100.12019230769229 Q 51.44230769230775 99.75961538461537 52.04326923076928 99.39903846153845 Q 52.644230769230816 99.03846153846153 53.36538461538466 98.67788461538461 Q 54.08653846153851 98.31730769230768 54.92788461538466 97.83653846153845 Q 55.769230769230816 97.35576923076923 57.0913461538462 96.875 Q 58.41346153846159 96.39423076923076 61.057692307692356 95.07211538461537 Q 63.70192307692312 93.74999999999999 65.62500000000006 92.90865384615384 Q 67.54807692307698 92.06730769230768 68.87019230769235 91.34615384615384 Q 70.19230769230774 90.62499999999999 70.67307692307698 90.26442307692307 Q 71.15384615384622 89.90384615384615 71.15384615384622 89.78365384615384 Q 71.15384615384622 89.66346153846153 71.15384615384622 89.90384615384615 Q 71.15384615384622 90.14423076923076 70.19230769230775 90.86538461538461 Q 69.23076923076928 91.58653846153845 68.50961538461544 92.30769230769229 Q 67.78846153846159 93.02884615384615 67.06730769230774 93.75 Q 66.3461538461539 94.47115384615384 65.98557692307698 94.71153846153845 Q 65.62500000000006 94.95192307692307 65.26442307692312 95.19230769230768 Q 64.9038461538462 95.4326923076923 64.54326923076928 95.91346153846153 Q 64.18269230769236 96.39423076923076 64.06250000000006 96.51442307692307 Q 63.94230769230775 96.63461538461537 63.94230769230775 96.75480769230768 Q 63.94230769230775 96.87499999999999 64.06250000000006 96.63461538461537 Q 64.18269230769236 96.39423076923076 65.14423076923083 95.43269230769229 Q 66.10576923076928 94.47115384615384 67.78846153846159 93.75 Q 69.4711538461539 93.02884615384615 71.27403846153851 92.1875 Q 73.07692307692312 91.34615384615384 75.8413461538462 90.14423076923076 Q 78.60576923076928 88.94230769230768 80.88942307692312 87.8605769230769 Q 83.17307692307696 86.77884615384615 84.73557692307696 85.9375 Q 86.29807692307696 85.09615384615384 87.50000000000004 84.49519230769229 Q 88.70192307692312 83.89423076923076 88.94230769230774 83.89423076923076 Q 89.18269230769235 83.89423076923076 89.54326923076928 83.89423076923076 Q 89.90384615384622 83.89423076923076 90.02403846153852 84.25480769230768 Q 90.14423076923083 84.61538461538461 90.26442307692314 85.21634615384615 Q 90.38461538461544 85.81730769230768 90.38461538461544 86.65865384615384 Q 90.38461538461544 87.49999999999999 90.38461538461544 88.34134615384615 Q 90.38461538461544 89.1826923076923 89.54326923076928 90.14423076923077 Q 88.70192307692312 91.10576923076923 88.2211538461539 91.58653846153845 Q 87.74038461538467 92.06730769230768 87.37980769230775 92.30769230769229 Q 87.01923076923083 92.54807692307692 86.7788461538462 92.54807692307692 Q 86.53846153846158 92.54807692307692 86.41826923076927 92.42788461538461 Q 86.29807692307696 92.3076923076923 86.05769230769235 91.94711538461539 Q 85.81730769230774 91.58653846153845 85.2163461538462 90.625 Q 84.61538461538467 89.66346153846153 84.61538461538467 88.70192307692307 Q 84.61538461538467 87.74038461538461 84.61538461538467 87.01923076923077 Q 84.61538461538467 86.29807692307692 84.61538461538467 85.57692307692307 Q 84.61538461538467 84.85576923076923 84.73557692307698 84.375 Q 84.85576923076928 83.89423076923076 84.85576923076928 83.65384615384615 Q 84.85576923076928 83.41346153846153 84.85576923076928 83.53365384615384 Q 84.85576923076928 83.65384615384615 84.61538461538467 84.25480769230768 Q 84.37500000000006 84.85576923076923 84.37500000000006 85.57692307692307 Q 84.37500000000006 86.29807692307692 84.37500000000006 86.65865384615384 Q 84.37500000000006 87.01923076923076 84.37500000000006 87.37980769230768 Q 84.37500000000006 87.74038461538461 84.61538461538467 88.22115384615384 Q 84.85576923076928 88.70192307692307 84.85576923076928 89.30288461538461 Q 84.85576923076928 89.90384615384615 84.85576923076928 90.625 Q 84.85576923076928 91.34615384615384 84.49519230769236 92.5480769230769 Q 84.13461538461544 93.74999999999999 83.29326923076928 96.27403846153845 Q 82.45192307692312 98.79807692307692 81.25000000000004 101.5625 Q 80.04807692307696 104.32692307692307 79.20673076923082 107.09134615384615 Q 78.36538461538467 109.85576923076923 77.76442307692312 111.41826923076923 Q 77.16346153846158 112.98076923076923 77.16346153846158 114.90384615384615 Q 77.16346153846158 116.82692307692307 77.4038461538462 119.35096153846152 Q 77.64423076923083 121.87499999999999 77.88461538461544 122.71634615384615 Q 78.12500000000006 123.5576923076923 78.24519230769236 123.79807692307692 Q 78.36538461538467 124.03846153846153 78.36538461538467 124.15865384615384 Q 78.36538461538467 124.27884615384615 77.88461538461544 123.91826923076923 Q 77.40384615384622 123.5576923076923 76.92307692307698 123.07692307692307 Q 76.44230769230774 122.59615384615384 76.08173076923082 122.47596153846153 Q 75.7211538461539 122.35576923076923 75.48076923076928 122.2355769230769 Q 75.24038461538467 122.1153846153846 74.87980769230775 121.99519230769229 Q 74.51923076923083 121.87499999999999 74.03846153846159 121.15384615384613 Q 73.55769230769235 120.43269230769229 73.07692307692312 119.59134615384613 Q 72.5961538461539 118.74999999999999 72.47596153846159 117.90865384615384 Q 72.35576923076928 117.06730769230768 71.99519230769236 116.10576923076923 Q 71.63461538461544 115.14423076923076 71.51442307692314 113.94230769230768 Q 71.39423076923083 112.7403846153846 71.39423076923083 112.62019230769229 Q 71.39423076923083 112.49999999999999 71.39423076923083 112.62019230769229 Q 71.39423076923083 112.7403846153846 71.63461538461544 114.90384615384613 Q 71.87500000000006 117.06730769230768 71.87500000000006 119.71153846153845 Q 71.87500000000006 122.35576923076923 71.87500000000006 123.31730769230768 Q 71.87500000000006 124.27884615384615 71.87500000000006 124.75961538461537 Q 71.87500000000006 125.2403846153846 71.87500000000006 124.87980769230768 Q 71.87500000000006 124.51923076923076 71.87500000000006 123.7980769230769 Q 71.87500000000006 123.07692307692307 71.75480769230775 121.51442307692307 Q 71.63461538461544 119.95192307692307 71.63461538461544 119.1105769230769 Q 71.63461538461544 118.26923076923076 72.23557692307698 117.78846153846152 Q 72.83653846153851 117.30769230769229 73.07692307692312 117.30769230769229 Q 73.31730769230774 117.30769230769229 73.55769230769235 117.30769230769229 Q 73.79807692307696 117.30769230769229 74.1586538461539 117.78846153846152 Q 74.51923076923083 118.26923076923076 75.00000000000006 118.87019230769229 Q 75.48076923076928 119.47115384615384 76.44230769230775 120.91346153846153 Q 77.40384615384622 122.35576923076923 77.64423076923083 122.95673076923077 Q 77.88461538461544 123.5576923076923 78.24519230769236 124.27884615384615 Q 78.60576923076928 124.99999999999999 78.72596153846159 125.60096153846153 Q 78.8461538461539 126.20192307692308 78.8461538461539 126.6826923076923 Q 78.8461538461539 127.16346153846153 78.8461538461539 127.40384615384615 Q 78.8461538461539 127.64423076923076 78.8461538461539 127.88461538461539 Q 78.8461538461539 128.125 78.8461538461539 128.4855769230769 Q 78.8461538461539 128.8461538461538 78.8461538461539 128.96634615384613 Q 78.8461538461539 129.08653846153845 78.8461538461539 129.20673076923077 Q 78.8461538461539 129.3269230769231 78.8461538461539 129.9278846153846 Q 78.8461538461539 130.52884615384613 78.8461538461539 130.64903846153845 Q 78.8461538461539 130.76923076923077 78.8461538461539 130.88942307692307 Q 78.8461538461539 131.00961538461536 78.8461538461539 131.49038461538458 Q 78.8461538461539 131.9711538461538 79.08653846153851 132.45192307692307 Q 79.32692307692312 132.93269230769232 79.56730769230774 133.0528846153846 Q 79.80769230769235 133.1730769230769 79.92788461538466 133.53365384615384 Q 80.04807692307696 133.89423076923077 80.04807692307696 134.01442307692307 Q 80.04807692307696 134.13461538461536 80.16826923076927 134.25480769230768 Q 80.28846153846158 134.375 80.5288461538462 134.4951923076923 Q 80.76923076923083 134.61538461538458 81.00961538461544 134.61538461538458 Q 81.25000000000006 134.61538461538458 81.25000000000006 134.7355769230769 Q 81.25000000000006 134.85576923076923 81.61057692307698 135.21634615384613 Q 81.9711538461539 135.57692307692304 81.9711538461539 135.69711538461536 Q 81.9711538461539 135.81730769230768 82.0913461538462 135.9375 Q 82.21153846153851 136.05769230769232 82.33173076923082 136.1778846153846 Q 82.45192307692312 136.2980769230769 82.45192307692312 136.41826923076923 Q 82.45192307692312 136.53846153846155 82.57211538461543 136.65865384615384 Q 82.69230769230774 136.77884615384613 82.69230769230774 136.89903846153845 Q 82.69230769230774 137.01923076923077 82.93269230769235 137.01923076923077 Q 83.17307692307696 137.01923076923077 83.17307692307696 137.37980769230768 Q 83.17307692307696 137.74038461538458 83.17307692307696 137.8605769230769 Q 83.17307692307696 137.98076923076923 83.17307692307696 137.8605769230769 Q 83.17307692307696 137.74038461538458 83.17307692307696 137.37980769230768 Q 83.17307692307696 137.01923076923077 83.17307692307696 136.41826923076923 Q 83.17307692307696 135.81730769230768 82.69230769230774 134.97596153846152 Q 82.21153846153851 134.13461538461536 81.85096153846159 133.65384615384613 Q 81.49038461538467 133.1730769230769 81.00961538461544 132.69230769230768 Q 80.52884615384622 132.21153846153845 80.4086538461539 131.85096153846152 Q 80.28846153846158 131.49038461538458 79.92788461538466 131.00961538461536 Q 79.56730769230774 130.52884615384613 79.08653846153851 130.0480769230769 Q 78.60576923076928 129.56730769230768 78.24519230769236 129.08653846153845 Q 77.88461538461544 128.60576923076923 77.4038461538462 128.3653846153846 Q 76.92307692307696 128.125 75.96153846153851 127.28365384615384 Q 75.00000000000006 126.4423076923077 74.75961538461544 125.96153846153845 Q 74.51923076923083 125.48076923076921 74.03846153846159 124.99999999999999 Q 73.55769230769235 124.51923076923076 73.07692307692312 124.15865384615384 Q 72.5961538461539 123.79807692307692 72.23557692307698 123.31730769230768 Q 71.87500000000006 122.83653846153845 71.75480769230775 122.59615384615384 Q 71.63461538461544 122.35576923076923 71.27403846153852 121.875 Q 70.9134615384616 121.39423076923076 70.67307692307698 121.39423076923076 Q 70.43269230769235 121.39423076923076 70.43269230769235 121.15384615384615 Q 70.43269230769235 120.91346153846153 70.19230769230774 120.91346153846153 Q 69.95192307692312 120.91346153846153 69.83173076923082 120.79326923076923 Q 69.71153846153851 120.67307692307692 69.71153846153851 120.55288461538461 Q 69.71153846153851 120.43269230769229 69.4711538461539 119.95192307692307 Q 69.23076923076928 119.47115384615384 69.11057692307698 119.23076923076923 Q 68.99038461538467 118.9903846153846 68.99038461538467 118.62980769230768 Q 68.99038461538467 118.26923076923076 68.99038461538467 117.5480769230769 Q 68.99038461538467 116.82692307692307 68.99038461538467 116.22596153846152 Q 68.99038461538467 115.62499999999999 68.99038461538467 115.02403846153845 Q 68.99038461538467 114.42307692307692 68.99038461538467 113.82211538461539 Q 68.99038461538467 113.22115384615384 68.99038461538467 112.25961538461539 Q 68.99038461538467 111.29807692307692 68.99038461538467 110.69711538461539 Q 68.99038461538467 110.09615384615384 69.23076923076928 109.49519230769229 Q 69.4711538461539 108.89423076923076 69.5913461538462 108.53365384615384 Q 69.71153846153851 108.17307692307692 69.71153846153851 108.05288461538461 Q 69.71153846153851 107.93269230769229 69.83173076923082 107.69230769230768 Q 69.95192307692312 107.45192307692307 70.07211538461543 107.45192307692307 Q 70.19230769230774 107.45192307692307 70.67307692307698 107.57211538461537 Q 71.15384615384622 107.69230769230768 71.51442307692314 108.05288461538461 Q 71.87500000000006 108.41346153846153 72.11538461538467 108.41346153846153 Q 72.35576923076928 108.41346153846153 72.5961538461539 108.53365384615384 Q 72.83653846153851 108.65384615384615 72.83653846153851 108.77403846153845 Q 72.83653846153851 108.89423076923076 73.19711538461543 109.25480769230768 Q 73.55769230769235 109.61538461538461 73.79807692307698 109.85576923076923 Q 74.0384615384616 110.09615384615384 74.27884615384622 110.45673076923076 Q 74.51923076923083 110.81730769230768 74.63942307692314 110.81730769230768 Q 74.75961538461544 110.81730769230768 74.87980769230775 111.2980769230769 Q 75.00000000000006 111.77884615384615 75.00000000000006 112.37980769230768 Q 75.00000000000006 112.98076923076923 75.00000000000006 113.70192307692307 Q 75.00000000000006 114.42307692307692 74.39903846153851 115.02403846153845 Q 73.79807692307696 115.62499999999999 72.95673076923082 116.58653846153845 Q 72.11538461538467 117.54807692307692 71.99519230769236 117.78846153846153 Q 71.87500000000006 118.02884615384615 71.75480769230775 118.26923076923076 Q 71.63461538461544 118.50961538461537 71.39423076923083 118.87019230769229 Q 71.15384615384622 119.23076923076923 70.91346153846159 119.35096153846153 Q 70.67307692307696 119.47115384615384 70.55288461538466 119.83173076923076 Q 70.43269230769235 120.19230769230768 70.19230769230774 120.31249999999999 Q 69.95192307692312 120.43269230769229 69.83173076923082 120.55288461538461 Q 69.71153846153851 120.67307692307692 69.23076923076928 120.91346153846153 Q 68.75000000000006 121.15384615384615 68.50961538461544 121.39423076923076 Q 68.26923076923083 121.63461538461537 68.02884615384622 121.87499999999999 Q 67.78846153846159 122.1153846153846 67.30769230769235 122.2355769230769 Q 66.82692307692312 122.35576923076923 66.58653846153851 122.47596153846153 Q 66.3461538461539 122.59615384615384 66.10576923076928 122.83653846153845 Q 65.86538461538467 123.07692307692307 65.38461538461544 123.31730769230768 Q 64.9038461538462 123.5576923076923 64.66346153846159 123.5576923076923 Q 64.42307692307698 123.5576923076923 64.42307692307698 123.67788461538461 Q 64.42307692307698 123.79807692307692 64.18269230769236 123.79807692307692 Q 63.94230769230775 123.79807692307692 63.58173076923082 123.79807692307692 Q 63.221153846153896 123.79807692307692 62.74038461538467 123.5576923076923 Q 62.259615384615444 123.3173076923077 61.89903846153852 122.83653846153845 Q 61.53846153846159 122.35576923076923 60.81730769230774 121.875 Q 60.096153846153896 121.39423076923076 59.61538461538467 121.03365384615384 Q 59.134615384615444 120.67307692307692 58.77403846153852 120.43269230769229 Q 58.41346153846159 120.19230769230768 57.57211538461544 119.47115384615384 Q 56.73076923076928 118.74999999999999 56.49038461538467 118.50961538461537 Q 56.25000000000006 118.26923076923076 56.00961538461544 117.90865384615384 Q 55.769230769230816 117.54807692307692 55.5288461538462 117.30769230769229 Q 55.28846153846159 117.06730769230768 55.28846153846159 116.94711538461537 Q 55.28846153846159 116.82692307692307 55.28846153846159 116.58653846153845 Q 55.28846153846159 116.34615384615384 55.28846153846159 116.46634615384615 Q 55.28846153846159 116.58653846153845 55.408653846153896 116.70673076923076 Q 55.5288461538462 116.82692307692307 55.88942307692313 117.5480769230769 Q 56.25000000000006 118.26923076923076 56.49038461538467 119.23076923076923 Q 56.73076923076928 120.19230769230768 56.971153846153896 120.79326923076923 Q 57.21153846153851 121.39423076923076 57.45192307692313 121.875 Q 57.69230769230775 122.35576923076923 57.93269230769236 122.59615384615384 Q 58.17307692307698 122.83653846153845 58.17307692307698 123.07692307692307 Q 58.17307692307698 123.3173076923077 58.17307692307698 123.5576923076923 Q 58.17307692307698 123.79807692307692 58.29326923076928 123.91826923076923 Q 58.41346153846159 124.03846153846153 58.6538461538462 124.15865384615384 Q 58.894230769230816 124.27884615384615 58.894230769230816 124.39903846153845 Q 58.894230769230816 124.51923076923076 58.894230769230816 124.63942307692307 Q 58.894230769230816 124.75961538461537 58.894230769230816 124.99999999999999 Q 58.894230769230816 125.2403846153846 58.894230769230816 125.48076923076921 Q 58.894230769230816 125.72115384615383 58.894230769230816 125.84134615384613 Q 58.894230769230816 125.96153846153844 58.77403846153851 126.08173076923076 Q 58.6538461538462 126.20192307692308 58.6538461538462 126.32211538461539 Q 58.6538461538462 126.4423076923077 58.533653846153896 126.5625 Q 58.41346153846159 126.6826923076923 58.41346153846159 126.92307692307692 Q 58.41346153846159 127.16346153846153 58.29326923076928 127.16346153846153 Q 58.17307692307698 127.16346153846153 58.05288461538467 127.16346153846153 Q 57.93269230769236 127.16346153846153 57.81250000000006 127.16346153846153 Q 57.69230769230775 127.16346153846153 57.45192307692313 127.16346153846153 Q 57.21153846153851 127.16346153846153 57.0913461538462 127.16346153846153 Q 56.971153846153896 127.16346153846153 56.73076923076928 127.04326923076923 Q 56.49038461538467 126.92307692307692 56.37019230769236 126.92307692307692 Q 56.25000000000006 126.92307692307692 56.12980769230775 126.92307692307692 Q 56.009615384615444 126.92307692307692 56.009615384615444 127.04326923076923 Q 56.009615384615444 127.16346153846153 56.37019230769236 127.40384615384615 Q 56.73076923076928 127.64423076923076 56.85096153846159 127.76442307692307 Q 56.971153846153896 127.88461538461537 57.0913461538462 127.88461538461537 Q 57.21153846153851 127.88461538461537 57.331730769230816 127.88461538461537 Q 57.45192307692312 127.88461538461537 57.57211538461544 127.88461538461537 Q 57.69230769230775 127.88461538461537 57.93269230769236 128.00480769230768 Q 58.17307692307698 128.125 58.29326923076928 128.125 Q 58.41346153846159 128.125 58.41346153846159 128.2451923076923 Q 58.41346153846159 128.36538461538458 58.41346153846159 128.4855769230769 Q 58.41346153846159 128.60576923076923 58.41346153846159 128.84615384615384 Q 58.41346153846159 129.08653846153845 58.6538461538462 129.08653846153845 Q 58.894230769230816 129.08653846153845 58.77403846153851 129.08653846153845 Q 58.6538461538462 129.08653846153845 58.533653846153896 129.08653846153845 Q 58.41346153846159 129.08653846153845 58.29326923076928 129.08653846153845 Q 58.17307692307698 129.08653846153845 58.05288461538467 128.96634615384613 Q 57.93269230769236 128.8461538461538 57.93269230769236 128.72596153846152 Q 57.93269230769236 128.60576923076923 57.93269230769236 128.3653846153846 Q 57.93269230769236 128.125 57.81250000000006 128.125 Q 57.69230769230775 128.125 57.45192307692313 128.125 Q 57.21153846153851 128.125 57.21153846153851 128.00480769230768 Q 57.21153846153851 127.88461538461537 57.0913461538462 127.64423076923076 Q 56.971153846153896 127.40384615384615 56.73076923076928 127.40384615384615 Q 56.49038461538467 127.40384615384615 56.37019230769236 127.28365384615384 Q 56.25000000000006 127.16346153846153 56.12980769230775 127.16346153846153 Q 56.009615384615444 127.16346153846153 55.88942307692313 127.04326923076923 Q 55.769230769230816 126.92307692307692 55.5288461538462 126.92307692307692 Q 55.28846153846159 126.92307692307692 55.16826923076928 126.92307692307692 Q 55.04807692307698 126.92307692307692 54.80769230769236 126.92307692307692 Q 54.56730769230775 126.92307692307692 54.56730769230775 126.80288461538461 Q 54.56730769230775 126.6826923076923 54.447115384615444 126.6826923076923 Q 54.32692307692314 126.6826923076923 54.20673076923082 126.6826923076923 Q 54.08653846153851 126.6826923076923 53.9663461538462 126.6826923076923 Q 53.846153846153896 126.6826923076923 53.60576923076928 126.4423076923077 Q 53.36538461538467 126.20192307692308 53.24519230769236 126.20192307692308 Q 53.12500000000006 126.20192307692308 52.88461538461544 126.20192307692308 Q 52.644230769230816 126.20192307692308 52.4038461538462 126.08173076923076 Q 52.16346153846159 125.96153846153844 52.04326923076928 125.96153846153844 Q 51.92307692307698 125.96153846153844 51.68269230769236 125.72115384615383 Q 51.44230769230775 125.48076923076921 51.44230769230775 125.3605769230769 Q 51.44230769230775 125.2403846153846 51.322115384615444 125.2403846153846 Q 51.20192307692314 125.2403846153846 51.20192307692314 125.12019230769229 Q 51.20192307692314 124.99999999999999 50.96153846153852 124.87980769230768 Q 50.721153846153896 124.75961538461537 50.60096153846159 124.75961538461537 Q 50.48076923076928 124.75961538461537 50.36057692307698 124.51923076923076 Q 50.24038461538467 124.27884615384615 50.12019230769236 124.27884615384615 Q 50.00000000000006 124.27884615384615 49.75961538461544 124.15865384615384 Q 49.519230769230816 124.03846153846153 49.39903846153851 123.79807692307692 Q 49.2788461538462 123.5576923076923 49.03846153846159 123.5576923076923 Q 48.79807692307698 123.5576923076923 48.79807692307698 123.4375 Q 48.79807692307698 123.3173076923077 48.67788461538467 123.3173076923077 Q 48.55769230769236 123.3173076923077 48.55769230769236 123.19711538461539 Q 48.55769230769236 123.07692307692307 48.43750000000006 123.07692307692307 Q 48.31730769230775 123.07692307692307 48.07692307692313 122.95673076923076 Q 47.83653846153851 122.83653846153845 47.7163461538462 122.59615384615384 Q 47.596153846153896 122.35576923076923 47.47596153846159 122.35576923076923 Q 47.35576923076928 122.35576923076923 47.11538461538467 122.35576923076923 Q 46.87500000000006 122.35576923076923 46.75480769230775 122.2355769230769 Q 46.634615384615444 122.1153846153846 46.51442307692313 121.87499999999999 Q 46.394230769230816 121.63461538461537 46.27403846153851 121.51442307692307 Q 46.1538461538462 121.39423076923076 46.033653846153896 121.27403846153845 Q 45.91346153846159 121.15384615384615 45.79326923076928 121.03365384615384 Q 45.67307692307698 120.91346153846153 45.55288461538467 120.79326923076923 Q 45.43269230769236 120.67307692307692 45.43269230769236 120.55288461538461 Q 45.43269230769236 120.43269230769229 45.19230769230775 120.31249999999999 Q 44.95192307692314 120.19230769230768 44.83173076923082 119.95192307692307 Q 44.71153846153851 119.71153846153845 44.71153846153851 119.59134615384615 Q 44.71153846153851 119.47115384615384 44.71153846153851 119.35096153846153 Q 44.71153846153851 119.23076923076923 44.471153846153896 119.1105769230769 Q 44.23076923076928 118.9903846153846 44.23076923076928 118.87019230769229 Q 44.23076923076928 118.74999999999999 44.11057692307698 118.62980769230768 Q 43.99038461538467 118.50961538461537 43.87019230769236 118.14903846153845 Q 43.75000000000006 117.78846153846153 43.75000000000006 117.66826923076923 Q 43.75000000000006 117.54807692307692 43.75000000000006 117.42788461538461 Q 43.75000000000006 117.30769230769229 43.62980769230775 117.06730769230768 Q 43.509615384615444 116.82692307692307 43.509615384615444 116.58653846153845 Q 43.509615384615444 116.34615384615384 43.509615384615444 116.10576923076923 Q 43.509615384615444 115.8653846153846 43.26923076923082 115.74519230769229 Q 43.0288461538462 115.62499999999999 43.0288461538462 115.38461538461537 Q 43.0288461538462 115.14423076923076 42.908653846153896 115.14423076923076 Q 42.78846153846159 115.14423076923076 42.78846153846159 115.02403846153845 Q 42.78846153846159 114.90384615384615 42.78846153846159 114.78365384615384 Q 42.78846153846159 114.66346153846153 42.54807692307698 114.54326923076923 Q 42.30769230769236 114.42307692307692 42.30769230769236 114.18269230769229 Q 42.30769230769236 113.94230769230768 42.18750000000006 113.94230769230768 Q 42.06730769230775 113.94230769230768 41.947115384615444 113.82211538461537 Q 41.82692307692314 113.70192307692307 41.70673076923082 113.70192307692307 Q 41.58653846153851 113.70192307692307 41.346153846153896 113.46153846153845 Q 41.10576923076928 113.22115384615384 40.98557692307698 112.98076923076923 Q 40.86538461538467 112.7403846153846 40.86538461538467 112.62019230769229 Q 40.86538461538467 112.49999999999999 40.86538461538467 112.25961538461537 Q 40.86538461538467 112.01923076923076 40.86538461538467 111.89903846153845 Q 40.86538461538467 111.77884615384615 40.62500000000006 111.53846153846153 Q 40.384615384615444 111.29807692307692 40.26442307692314 110.9375 Q 40.14423076923083 110.57692307692307 40.14423076923083 110.33653846153845 Q 40.14423076923083 110.09615384615384 40.02403846153852 109.97596153846153 Q 39.9038461538462 109.85576923076923 39.9038461538462 109.61538461538461 Q 39.9038461538462 109.37499999999999 39.9038461538462 109.25480769230768 Q 39.9038461538462 109.13461538461537 39.9038461538462 109.01442307692307 Q 39.9038461538462 108.89423076923076 39.9038461538462 108.77403846153845 Q 39.9038461538462 108.65384615384615 39.9038461538462 108.53365384615384 Q 39.9038461538462 108.41346153846153 39.9038461538462 108.1730769230769 Q 39.9038461538462 107.93269230769229 39.9038461538462 107.69230769230768 Q 39.9038461538462 107.45192307692307 39.9038461538462 107.57211538461537 Q 39.9038461538462 107.69230769230768 39.9038461538462 107.81249999999999 Q 39.9038461538462 107.93269230769229 39.9038461538462 108.41346153846152 Q 39.9038461538462 108.89423076923076 39.9038461538462 109.01442307692307 Q 39.9038461538462 109.13461538461537 39.9038461538462 109.7355769230769 Q 39.9038461538462 110.33653846153845 39.9038461538462 110.57692307692307 Q 39.9038461538462 110.81730769230768 39.9038461538462 111.17788461538461 Q 39.9038461538462 111.53846153846153 39.9038461538462 111.65865384615384 Q 39.9038461538462 111.77884615384615 39.9038461538462 112.01923076923076 Q 39.9038461538462 112.25961538461537 39.9038461538462 112.49999999999999 Q 39.9038461538462 112.7403846153846 39.9038461538462 113.10096153846152 Q 39.9038461538462 113.46153846153845 39.9038461538462 113.58173076923076 Q 39.9038461538462 113.70192307692307 39.9038461538462 113.82211538461537 Q 39.9038461538462 113.94230769230768 39.9038461538462 114.06249999999999 Q 39.9038461538462 114.18269230769229 39.9038461538462 114.4230769230769 Q 39.9038461538462 114.66346153846153 39.9038461538462 114.78365384615384 Q 39.9038461538462 114.90384615384615 39.9038461538462 115.14423076923076 Q 39.9038461538462 115.38461538461537 39.9038461538462 115.50480769230768 Q 39.9038461538462 115.62499999999999 39.9038461538462 115.74519230769229 Q 39.9038461538462 115.8653846153846 40.02403846153852 115.9855769230769 Q 40.14423076923083 116.10576923076923 40.14423076923083 116.34615384615384 Q 40.14423076923083 116.58653846153845 40.384615384615444 116.58653846153845 Q 40.62500000000006 116.58653846153845 40.74519230769236 116.58653846153845 Q 40.86538461538467 116.58653846153845 41.10576923076928 116.70673076923076 Q 41.346153846153896 116.82692307692307 41.58653846153852 117.06730769230768 Q 41.82692307692314 117.30769230769229 41.947115384615444 117.42788461538461 Q 42.06730769230775 117.54807692307692 42.42788461538467 117.66826923076923 Q 42.78846153846159 117.78846153846153 42.78846153846159 117.90865384615384 Q 42.78846153846159 118.02884615384615 43.02884615384621 118.02884615384615 Q 43.26923076923083 118.02884615384615 43.38942307692314 118.26923076923076 Q 43.509615384615444 118.50961538461537 43.75000000000006 118.50961538461537 Q 43.99038461538467 118.50961538461537 44.23076923076928 118.50961538461537 Q 44.471153846153896 118.50961538461537 44.5913461538462 118.62980769230768 Q 44.71153846153851 118.74999999999999 44.71153846153851 118.99038461538461 Q 44.71153846153851 119.23076923076923 44.95192307692313 119.23076923076923 Q 45.19230769230775 119.23076923076923 45.9134615384616 118.75 L 46.640615384615444 118.26323076923076" stroke-linecap="round" />
</g>
<g transform="matrix(1 0 0 1 113.34 23.8)" id="RtKjBw5VbKp_bEcYT6_js"  >
<path style="stroke: rgb(152,95,0); stroke-width: 6; stroke-dasharray: none; stroke-linecap: round; stroke-dashoffset: 0; stroke-linejoin: round; stroke-miterlimit: 10; fill: none; fill-rule: nonzero; opacity: 1;" vector-effect="non-scaling-stroke"  transform=" translate(-113.34, -23.8)" d="M 110.81730769230774 30.05407692307692 Q 110.81730769230774 30.04807692307692 110.81730769230774 29.927884615384613 Q 110.81730769230774 29.807692307692307 110.81730769230774 29.6875 Q 110.81730769230774 29.567307692307693 110.81730769230774 29.447115384615383 Q 110.81730769230774 29.326923076923073 110.81730769230774 29.206730769230766 Q 110.81730769230774 29.08653846153846 110.81730769230774 28.725961538461537 Q 110.81730769230774 28.365384615384613 110.81730769230774 28.245192307692307 Q 110.81730769230774 28.125 110.81730769230774 27.644230769230766 Q 110.81730769230774 27.163461538461537 110.93750000000004 27.043269230769226 Q 111.05769230769235 26.92307692307692 111.05769230769235 26.682692307692307 Q 111.05769230769235 26.44230769230769 111.17788461538466 26.201923076923073 Q 111.29807692307696 25.96153846153846 111.53846153846158 25.841346153846153 Q 111.77884615384619 25.721153846153843 111.77884615384619 25.480769230769226 Q 111.77884615384619 25.240384615384613 111.89903846153851 24.87980769230769 Q 112.01923076923083 24.519230769230766 112.01923076923083 24.39903846153846 Q 112.01923076923083 24.278846153846153 112.01923076923083 24.158653846153847 Q 112.01923076923083 24.038461538461537 112.25961538461544 23.79807692307692 Q 112.50000000000006 23.557692307692307 112.50000000000006 23.4375 Q 112.50000000000006 23.31730769230769 112.50000000000006 23.197115384615383 Q 112.50000000000006 23.076923076923077 112.62019230769236 23.076923076923077 Q 112.74038461538467 23.076923076923077 112.74038461538467 22.83653846153846 Q 112.74038461538467 22.596153846153843 112.74038461538467 22.475961538461537 Q 112.74038461538467 22.35576923076923 112.86057692307698 22.23557692307692 Q 112.98076923076928 22.115384615384613 112.98076923076928 21.995192307692307 Q 112.98076923076928 21.875 113.10096153846159 21.754807692307693 Q 113.2211538461539 21.634615384615383 113.2211538461539 21.514423076923073 Q 113.2211538461539 21.394230769230766 113.3413461538462 21.27403846153846 Q 113.46153846153851 21.153846153846153 113.46153846153851 20.91346153846154 Q 113.46153846153851 20.673076923076923 113.70192307692312 20.673076923076923 Q 113.94230769230774 20.673076923076923 113.94230769230774 20.552884615384613 Q 113.94230769230774 20.432692307692307 113.94230769230774 20.192307692307693 Q 113.94230769230774 19.951923076923077 113.94230769230774 19.831730769230766 Q 113.94230769230774 19.71153846153846 114.18269230769235 19.591346153846153 Q 114.42307692307696 19.471153846153847 114.42307692307696 19.35096153846154 Q 114.42307692307696 19.23076923076923 114.54326923076927 18.990384615384613 Q 114.66346153846158 18.75 114.78365384615388 18.629807692307693 Q 114.90384615384619 18.509615384615383 115.02403846153851 18.509615384615383 Q 115.14423076923083 18.509615384615383 115.14423076923083 18.269230769230766 Q 115.14423076923083 18.028846153846153 115.26442307692314 18.028846153846153 Q 115.38461538461544 18.028846153846153 115.38461538461544 17.908653846153847 Q 115.38461538461544 17.788461538461537 115.62500000000006 17.66826923076923 L 115.86538461538467 17.548076923076923" stroke-linecap="round" />
</g>
<g transform="matrix(1 0 0 1 38.22 112.14)" id="Dq38X7jTVExI9pwV3XmTT"  >
<path style="stroke: rgb(0,0,0); stroke-width: 6; stroke-dasharray: none; stroke-linecap: round; stroke-dashoffset: 0; stroke-linejoin: round; stroke-miterlimit: 10; fill: none; fill-rule: nonzero; opacity: 1;" vector-effect="non-scaling-stroke"  transform=" translate(-38.22, -112.14)" d="M 37.259615384615444 104.80169230769229 Q 37.259615384615444 104.80769230769229 37.259615384615444 104.92788461538461 Q 37.259615384615444 105.04807692307692 37.259615384615444 105.16826923076923 Q 37.259615384615444 105.28846153846153 37.50000000000006 105.64903846153845 Q 37.74038461538467 106.00961538461537 37.74038461538467 106.25 Q 37.74038461538467 106.49038461538461 37.74038461538467 106.61057692307692 Q 37.74038461538467 106.73076923076923 37.74038461538467 106.85096153846153 Q 37.74038461538467 106.97115384615384 37.74038461538467 107.09134615384615 Q 37.74038461538467 107.21153846153845 37.74038461538467 107.45192307692307 Q 37.74038461538467 107.69230769230768 37.74038461538467 107.81249999999999 Q 37.74038461538467 107.93269230769229 37.74038461538467 108.1730769230769 Q 37.74038461538467 108.41346153846153 37.74038461538467 108.53365384615384 Q 37.74038461538467 108.65384615384615 37.74038461538467 108.77403846153845 Q 37.74038461538467 108.89423076923076 37.74038461538467 109.01442307692307 Q 37.74038461538467 109.13461538461537 37.74038461538467 109.375 Q 37.74038461538467 109.61538461538461 37.74038461538467 109.73557692307692 Q 37.74038461538467 109.85576923076923 37.74038461538467 110.09615384615384 Q 37.74038461538467 110.33653846153845 37.74038461538467 110.57692307692307 Q 37.74038461538467 110.81730769230768 37.62019230769236 110.93749999999999 Q 37.50000000000006 111.05769230769229 37.50000000000006 111.41826923076923 Q 37.50000000000006 111.77884615384615 37.50000000000006 112.01923076923076 Q 37.50000000000006 112.25961538461537 37.50000000000006 112.37980769230768 Q 37.50000000000006 112.49999999999999 37.50000000000006 112.62019230769229 Q 37.50000000000006 112.7403846153846 37.50000000000006 112.98076923076923 Q 37.50000000000006 113.22115384615384 37.50000000000006 113.46153846153845 Q 37.50000000000006 113.70192307692307 37.50000000000006 113.94230769230768 Q 37.50000000000006 114.18269230769229 37.50000000000006 114.30288461538461 Q 37.50000000000006 114.42307692307692 37.50000000000006 114.54326923076923 Q 37.50000000000006 114.66346153846153 37.50000000000006 114.78365384615384 Q 37.50000000000006 114.90384615384615 37.50000000000006 115.02403846153845 Q 37.50000000000006 115.14423076923076 37.50000000000006 115.38461538461537 Q 37.50000000000006 115.62499999999999 37.50000000000006 115.86538461538461 Q 37.50000000000006 116.10576923076923 37.50000000000006 116.22596153846153 Q 37.50000000000006 116.34615384615384 37.62019230769236 116.34615384615384 Q 37.74038461538467 116.34615384615384 37.74038461538467 116.58653846153845 Q 37.74038461538467 116.82692307692307 37.74038461538467 116.94711538461537 Q 37.74038461538467 117.06730769230768 37.86057692307698 117.30769230769229 Q 37.98076923076928 117.54807692307692 37.98076923076928 117.78846153846153 Q 37.98076923076928 118.02884615384615 38.221153846153896 118.02884615384615 Q 38.46153846153851 118.02884615384615 38.46153846153851 118.14903846153845 Q 38.46153846153851 118.26923076923076 38.58173076923082 118.26923076923076 Q 38.70192307692314 118.26923076923076 38.70192307692314 118.38942307692307 Q 38.70192307692314 118.50961538461537 38.822115384615444 118.62980769230768 Q 38.94230769230775 118.74999999999999 38.94230769230775 118.87019230769229 Q 38.94230769230775 118.9903846153846 39.06250000000006 119.23076923076923 L 39.188692307692364 119.47715384615384" stroke-linecap="round" />
</g>
</svg>